<svg width="40" height="39" viewBox="0 0 40 39" fill="none" xmlns="http://www.w3.org/2000/svg">
<path d="M7.08333 0H32.9167C36.8333 0 40 3.16667 40 7.08333V31.9167C40 35.8333 36.8333 39 32.9167 39H7.08333C3.16667 39 0 35.8333 0 31.9167V7.08333C0 3.16667 3.16667 0 7.08333 0Z" fill="#330000"/>
<path d="M19.3839 23.4001H13.1839L11.9172 27.3167C11.8839 27.4667 11.7506 27.5667 11.6006 27.5501H8.46722C8.28388 27.5501 8.23388 27.4501 8.28388 27.2501L13.6506 11.8001C13.7006 11.6334 13.7506 11.4501 13.8172 11.2501C13.8839 10.9001 13.9172 10.5334 13.9172 10.1667C13.9006 10.0834 13.9672 10.0001 14.0506 9.9834C14.0672 9.9834 14.0839 9.9834 14.1006 9.9834H18.3672C18.5006 9.9834 18.5672 10.0334 18.5839 10.1167L24.6672 27.2834C24.7172 27.4667 24.6672 27.5501 24.5006 27.5501H21.0172C20.9006 27.5667 20.7839 27.4834 20.7506 27.3667L19.3839 23.4001ZM14.1506 20.0167H18.3839C18.2839 19.6667 18.1506 19.2501 18.0006 18.8167C17.8506 18.3667 17.7006 17.8834 17.5506 17.3834C17.3839 16.8667 17.2339 16.3667 17.0672 15.8501C16.9006 15.3334 16.7506 14.8501 16.6172 14.3667C16.4839 13.9001 16.3672 13.4667 16.2506 13.0667H16.2172C16.0672 13.7834 15.8839 14.5001 15.6506 15.2167C15.4006 16.0167 15.1506 16.8501 14.8839 17.6834C14.6506 18.5334 14.4006 19.3167 14.1506 20.0167Z" fill="#FF9A00"/>
<path d="M28.301 12.8334C27.751 12.85 27.2176 12.6334 26.8176 12.25C26.4343 11.8334 26.2343 11.2834 26.251 10.7167C26.2343 10.15 26.451 9.61669 26.851 9.23336C27.251 8.85002 27.7843 8.65002 28.3343 8.65002C28.9843 8.65002 29.4843 8.85002 29.851 9.23336C30.2176 9.63336 30.4176 10.1667 30.401 10.7167C30.4176 11.2834 30.2176 11.8334 29.8176 12.25C29.4343 12.65 28.8676 12.8667 28.301 12.8334ZM26.4343 27.3V14.4667C26.4343 14.3 26.501 14.2334 26.651 14.2334H29.951C30.101 14.2334 30.1676 14.3167 30.1676 14.4667V27.3C30.1676 27.4834 30.101 27.5667 29.951 27.5667H26.6843C26.5176 27.5667 26.4343 27.4667 26.4343 27.3Z" fill="#FF9A00"/>
</svg>
