<svg width="40" height="40" viewBox="0 0 40 40" fill="none" xmlns="http://www.w3.org/2000/svg">
<path d="M14.8799 30.6625C14.8799 30.6625 13.3902 31.5294 15.9415 31.8219C19.0327 32.175 20.6124 32.1244 24.018 31.4807C24.018 31.4807 24.9152 32.0416 26.1659 32.5278C18.5287 35.7997 8.8821 32.3382 14.8799 30.6625ZM13.9462 26.3922C13.9462 26.3922 12.2749 27.6294 14.8284 27.8938C18.1305 28.2347 20.7377 28.2625 25.2515 27.3938C25.2515 27.3938 25.8743 28.0266 26.8552 28.3722C17.6234 31.0722 7.34085 28.5847 13.9462 26.3922Z" fill="#0074BD"/>
<path d="M21.8133 19.1472C23.6961 21.3144 21.3195 23.2628 21.3195 23.2628C21.3195 23.2628 26.0973 20.7969 23.9036 17.7075C21.8539 14.8278 20.2827 13.3975 28.7895 8.46375C28.7895 8.46406 15.4361 11.7981 21.8133 19.1472Z" fill="#EA2D2E"/>
<path d="M31.9133 33.8216C31.9133 33.8216 33.0161 34.7309 30.6983 35.4337C26.2914 36.7687 12.3526 37.1712 8.48139 35.4872C7.09045 34.8816 9.69982 34.0419 10.5208 33.8647C11.3767 33.6794 11.8654 33.7131 11.8654 33.7131C10.3176 32.6234 1.86138 35.8537 7.57076 36.7803C23.1398 39.3041 35.9511 35.6437 31.9133 33.8216ZM15.5973 21.9669C15.5973 21.9669 8.50795 23.6509 13.087 24.2631C15.0208 24.5219 18.8739 24.4625 22.4654 24.1612C25.3998 23.9147 28.3445 23.3881 28.3445 23.3881C28.3445 23.3881 27.3108 23.8316 26.562 24.3422C19.3614 26.2362 5.45451 25.3541 9.45857 23.4178C12.8436 21.7806 15.5973 21.9669 15.5973 21.9669ZM28.3151 29.0753C35.6342 25.2731 32.2498 21.6191 29.8876 22.1112C29.3101 22.2316 29.0511 22.3362 29.0511 22.3362C29.0511 22.3362 29.2661 21.9991 29.6761 21.8541C34.3489 20.2119 37.942 26.6987 28.1689 29.2681C28.1689 29.2675 28.2811 29.1659 28.3151 29.0753Z" fill="#0074BD"/>
<path d="M23.904 0.495972C23.904 0.495972 27.9565 4.55097 20.0594 10.7844C13.7262 15.7863 18.6153 18.6375 20.0572 21.8966C16.36 18.5613 13.6481 15.6247 15.4672 12.8919C18.1384 8.88128 25.5387 6.93597 23.904 0.495972Z" fill="#EA2D2E"/>
<path d="M16.3174 39.3816C23.3412 39.8307 34.1299 39.1316 34.3852 35.8079C34.3852 35.8079 33.8943 37.0679 28.5799 38.0676C22.5843 39.1963 15.188 39.0647 10.8027 38.3407C10.8027 38.341 11.7012 39.0847 16.3174 39.3816Z" fill="#0074BD"/>
</svg>
