<svg width="40" height="39" viewBox="0 0 40 39" fill="none" xmlns="http://www.w3.org/2000/svg">
<path d="M7.08333 0H32.9167C36.8333 0 40 3.16667 40 7.08333V31.9167C40 35.8333 36.8333 39 32.9167 39H7.08333C3.16667 39 0 35.8333 0 31.9167V7.08333C0 3.16667 3.16667 0 7.08333 0Z" fill="#001E36"/>
<path d="M9 27.35V10.2C9 10.0833 9.05 10.0166 9.16667 10.0166C9.45 10.0166 9.71667 10.0166 10.1 9.99996C10.5 9.98329 10.9167 9.98329 11.3667 9.96663C11.8167 9.94996 12.3 9.94996 12.8167 9.93329C13.3333 9.91663 13.8333 9.91663 14.3333 9.91663C15.7 9.91663 16.8333 10.0833 17.7667 10.4333C18.6 10.7166 19.3667 11.1833 20 11.8C20.5333 12.3333 20.95 12.9833 21.2167 13.7C21.4667 14.4 21.6 15.1166 21.6 15.8666C21.6 17.3 21.2667 18.4833 20.6 19.4166C19.9333 20.35 19 21.05 17.9167 21.45C16.7833 21.8666 15.5333 22.0166 14.1667 22.0166C13.7667 22.0166 13.5 22.0166 13.3333 22C13.1667 21.9833 12.9333 21.9833 12.6167 21.9833V27.3333C12.6333 27.45 12.55 27.55 12.4333 27.5666C12.4167 27.5666 12.4 27.5666 12.3667 27.5666H9.2C9.06667 27.5666 9 27.5 9 27.35ZM12.6333 13.2333V18.8333C12.8667 18.85 13.0833 18.8666 13.2833 18.8666H14.1667C14.8167 18.8666 15.4667 18.7666 16.0833 18.5666C16.6167 18.4166 17.0833 18.1 17.45 17.6833C17.8 17.2666 17.9667 16.7 17.9667 15.9666C17.9833 15.45 17.85 14.9333 17.5833 14.4833C17.3 14.05 16.9 13.7166 16.4167 13.5333C15.8 13.2833 15.1333 13.1833 14.45 13.2C14.0167 13.2 13.6333 13.2 13.3167 13.2166C12.9833 13.2 12.75 13.2166 12.6333 13.2333Z" fill="#31A8FF"/>
<path d="M31.9997 17.8166C31.4997 17.5499 30.9663 17.3666 30.3997 17.2499C29.783 17.1166 29.1663 17.0333 28.533 17.0333C28.1996 17.0166 27.8496 17.0666 27.533 17.1499C27.3163 17.1999 27.133 17.3166 27.0163 17.4833C26.933 17.6166 26.883 17.7833 26.883 17.9333C26.883 18.0833 26.9497 18.2333 27.0497 18.3666C27.1997 18.5499 27.3996 18.6999 27.6163 18.8166C27.9997 19.0166 28.3997 19.1999 28.7997 19.3666C29.6997 19.6666 30.5663 20.0833 31.3663 20.5833C31.9163 20.9333 32.3663 21.3999 32.683 21.9666C32.9497 22.4999 33.083 23.0833 33.0663 23.6833C33.083 24.4666 32.8497 25.2499 32.4163 25.8999C31.9497 26.5666 31.2997 27.0833 30.5497 27.3833C29.733 27.7333 28.733 27.9166 27.533 27.9166C26.7663 27.9166 26.0163 27.8499 25.2663 27.6999C24.683 27.5999 24.0996 27.4166 23.5663 27.1666C23.4496 27.0999 23.3663 26.9833 23.383 26.8499V23.9499C23.383 23.8999 23.3996 23.8333 23.4496 23.7999C23.4996 23.7666 23.5497 23.7833 23.5997 23.8166C24.2497 24.1999 24.933 24.4666 25.6663 24.6333C26.2996 24.7999 26.9663 24.8833 27.633 24.8833C28.2663 24.8833 28.7163 24.7999 29.0163 24.6499C29.283 24.5333 29.4663 24.2499 29.4663 23.9499C29.4663 23.7166 29.333 23.4999 29.0663 23.2833C28.7996 23.0666 28.2497 22.8166 27.433 22.4999C26.583 22.1999 25.7996 21.7999 25.0663 21.2999C24.5496 20.9333 24.1163 20.4499 23.7996 19.8833C23.533 19.3499 23.3996 18.7666 23.4163 18.1833C23.4163 17.4666 23.6163 16.7833 23.983 16.1666C24.3996 15.4999 25.0163 14.9666 25.733 14.6333C26.5163 14.2333 27.4997 14.0499 28.683 14.0499C29.3663 14.0499 30.0663 14.0999 30.7497 14.1999C31.2497 14.2666 31.733 14.3999 32.183 14.5833C32.2497 14.5999 32.3163 14.6666 32.3497 14.7333C32.3663 14.7999 32.383 14.8666 32.383 14.9333V17.6499C32.383 17.7166 32.3497 17.7833 32.2997 17.8166C32.1497 17.8499 32.0663 17.8499 31.9997 17.8166Z" fill="#31A8FF"/>
</svg>
