<svg width="40" height="40" viewBox="0 0 40 40" fill="none" xmlns="http://www.w3.org/2000/svg">
<path d="M40 20C40 21.2098 39.8923 22.3943 39.6866 23.5445C38.0139 32.8996 29.8359 40 20 40C12.5894 40 6.12 35.9698 2.66531 29.9813C1.82203 28.5209 1.15922 26.9445 0.705312 25.2816C0.244922 23.5992 0 21.8277 0 20C0 8.9543 8.9543 0 20 0C29.1167 0 36.8081 6.09961 39.2171 14.4408C39.7266 16.2057 40 18.071 40 20Z" fill="#8F9ED1"/>
<path d="M10.1695 13.9248H2.80383L0.705078 25.2815C1.15898 26.9444 1.8218 28.5208 2.66508 29.9811H3.34836L4.16141 25.5828H8.20875C13.1369 25.5828 14.4618 21.1583 14.7794 18.9852C15.0977 16.8129 13.5084 13.9248 10.1695 13.9248ZM11.2381 19.3517C11.0577 20.5836 10.1475 23.0921 7.35406 23.0921H4.6218L5.84305 16.4823H8.6243C11.3353 16.4823 11.4185 18.1199 11.2381 19.3517Z" fill="#F2F2F2"/>
<path d="M39.2158 14.4407C38.5897 14.1175 37.8435 13.9248 36.9815 13.9248H29.6158L26.6484 29.9812H30.1602L30.9733 25.5829H35.0206C37.2125 25.5829 38.6916 24.7078 39.6851 23.5445C39.8909 22.3943 39.9987 21.2097 39.9987 20C39.9987 18.071 39.7252 16.2057 39.2158 14.4407ZM38.0501 19.3518C37.8697 20.5836 36.9595 23.0921 34.1652 23.0921H31.4337L32.655 16.4824H35.4363C38.1473 16.4824 38.2305 18.12 38.0501 19.3518Z" fill="#F2F2F2"/>
<path d="M24.16 13.978C22.7307 13.978 20.8237 13.978 19.8946 13.978L20.6952 9.64587H17.1979L14.2305 25.7018H17.7278L19.4343 16.4685C20.0648 16.4685 20.9023 16.4685 21.6694 16.4685C23.1531 16.4685 24.16 16.7865 23.948 18.1642C23.736 19.542 22.5173 25.6358 22.5173 25.6358H26.0676C26.0676 25.6358 27.4453 18.8531 27.6573 16.9454C27.8693 15.0378 26.1206 13.978 24.16 13.978Z" fill="#F2F2F2"/>
</svg>
