<svg width="40" height="40" viewBox="0 0 40 40" fill="none" xmlns="http://www.w3.org/2000/svg">
<path d="M40 20C40 22.0294 39.698 23.9886 39.1355 25.8343C39.1355 25.8351 39.1355 25.8351 39.1348 25.8359C38.4858 27.9657 37.4923 29.9445 36.2172 31.707V31.7077C34.3992 34.2212 32.0106 36.2955 29.2425 37.7404C28.427 38.1665 27.5788 38.538 26.7029 38.849C25.9927 39.102 25.2637 39.3151 24.5184 39.4873H24.5177C23.0653 39.8229 21.5543 40 20 40C16.7551 40 13.6914 39.2277 10.982 37.8563C8.44899 36.5747 6.22531 34.7698 4.45469 32.5837C2.84492 30.5984 1.60898 28.2987 0.851406 25.791C0.297969 23.9584 0 22.0139 0 20C0 8.9543 8.9543 0 20 0C31.0457 0 40 8.9543 40 20Z" fill="#264D6F"/>
<path d="M29.0709 8.73299V18.5992C29.0709 20.9216 27.1884 22.8041 24.8659 22.8041H14.759C11.8373 22.8041 9.46922 25.1731 9.46922 28.0947V32.9404H6.16469C5.56633 32.9404 4.99164 32.8221 4.45367 32.5837C2.84391 30.5984 1.60797 28.2988 0.850391 25.791C0.790781 25.1723 0.759766 24.5118 0.759766 23.8098C0.759766 17.68 3.18016 14.6792 6.16469 14.6792H20.0545V13.2555H10.8104V8.73307C10.8104 6.43674 14.8985 4.57471 19.941 4.57471C24.9835 4.57471 29.0709 6.43666 29.0709 8.73299Z" fill="#3876AC"/>
<path d="M14.7915 10.7912C15.7194 10.7912 16.4716 10.039 16.4716 9.11107C16.4716 8.18314 15.7194 7.43091 14.7915 7.43091C13.8636 7.43091 13.1113 8.18314 13.1113 9.11107C13.1113 10.039 13.8636 10.7912 14.7915 10.7912Z" fill="#F2F2F2"/>
<path d="M39.2934 23.2833C39.2934 24.204 39.2387 25.0547 39.1359 25.8343C39.1359 25.8351 39.1359 25.8351 39.1351 25.8359C38.4861 27.9657 37.4927 29.9445 36.2175 31.7069V31.7077C35.5122 32.1787 34.7228 32.413 33.8894 32.413H19.9996V33.8375H29.2429V37.7404C28.4273 38.1665 27.5792 38.538 26.7033 38.849C25.993 39.102 25.2641 39.3151 24.5188 39.4873H24.518C23.0657 39.8229 21.5547 40 20.0004 40C16.7555 40 13.6918 39.2277 10.9824 37.8563V28.4939C10.9824 26.1715 12.8657 24.2882 15.1881 24.2882H25.2951C28.2167 24.2882 30.5848 21.92 30.5848 18.9984V14.1527H33.8893C36.8738 14.1526 39.2934 17.0914 39.2934 23.2833Z" fill="#F7CD00"/>
<path d="M26.9439 37.982C26.9439 38.2996 26.8558 38.5967 26.7031 38.849C25.9929 39.102 25.2639 39.3151 24.5187 39.4873H24.5179C23.9645 39.213 23.584 38.6416 23.584 37.982C23.584 37.0539 24.3359 36.302 25.264 36.302C26.192 36.302 26.9439 37.0539 26.9439 37.982Z" fill="#F2F2F2"/>
</svg>
