<svg width="40" height="40" viewBox="0 0 40 40" fill="none" xmlns="http://www.w3.org/2000/svg">
<path d="M14.7265 22.3999C14.7265 23.4517 13.8673 24.311 12.8154 24.311C11.7636 24.311 10.9043 23.4517 10.9043 22.3999C10.9043 21.348 11.7636 20.4888 12.8154 20.4888H14.7265V22.3999Z" fill="#E01E5A"/>
<path d="M15.6895 22.3999C15.6895 21.348 16.5487 20.4888 17.6006 20.4888C18.6524 20.4888 19.5117 21.348 19.5117 22.3999V27.1851C19.5117 28.2369 18.6524 29.0962 17.6006 29.0962C16.5487 29.0962 15.6895 28.2369 15.6895 27.1851V22.3999Z" fill="#E01E5A"/>
<path d="M17.6006 14.7259C16.5487 14.7259 15.6895 13.8666 15.6895 12.8148C15.6895 11.7629 16.5487 10.9037 17.6006 10.9037C18.6524 10.9037 19.5117 11.7629 19.5117 12.8148V14.7259H17.6006Z" fill="#36C5F0"/>
<path d="M17.6006 15.6888C18.6524 15.6888 19.5117 16.5481 19.5117 17.6C19.5117 18.6518 18.6524 19.5111 17.6006 19.5111H12.8154C11.7636 19.5111 10.9043 18.6518 10.9043 17.6C10.9043 16.5481 11.7636 15.6888 12.8154 15.6888H17.6006Z" fill="#36C5F0"/>
<path d="M25.2754 17.6C25.2754 16.5481 26.1346 15.6888 27.1865 15.6888C28.2384 15.6888 29.0976 16.5481 29.0976 17.6C29.0976 18.6518 28.2384 19.5111 27.1865 19.5111H25.2754V17.6Z" fill="#2EB67D"/>
<path d="M24.3125 17.6C24.3125 18.6518 23.4532 19.5111 22.4013 19.5111C21.3495 19.5111 20.4902 18.6518 20.4902 17.6V12.8148C20.4902 11.7629 21.3495 10.9037 22.4013 10.9037C23.4532 10.9037 24.3125 11.7629 24.3125 12.8148V17.6Z" fill="#2EB67D"/>
<path d="M22.4013 25.2739C23.4532 25.2739 24.3125 26.1332 24.3125 27.185C24.3125 28.2369 23.4532 29.0961 22.4013 29.0961C21.3495 29.0961 20.4902 28.2369 20.4902 27.185V25.2739H22.4013Z" fill="#ECB22E"/>
<path d="M22.4013 24.311C21.3495 24.311 20.4902 23.4517 20.4902 22.3999C20.4902 21.348 21.3495 20.4888 22.4013 20.4888H27.1865C28.2384 20.4888 29.0976 21.348 29.0976 22.3999C29.0976 23.4517 28.2384 24.311 27.1865 24.311H22.4013Z" fill="#ECB22E"/>
</svg>
