<svg width="40" height="40" viewBox="0 0 40 40" fill="none" xmlns="http://www.w3.org/2000/svg">
<path d="M8.60821 0H31.3918C33.6748 0 35.8644 0.930205 37.4787 2.58598C39.0931 4.24176 40 6.48747 40 8.82909V31.1709C40 32.3304 39.7773 33.4785 39.3447 34.5497C38.9121 35.6208 38.2781 36.5942 37.4787 37.414C36.6794 38.2339 35.7304 38.8842 34.686 39.3279C33.6416 39.7716 32.5222 40 31.3918 40H8.60821C6.32517 40 4.13564 39.0698 2.52129 37.414C0.906934 35.7582 0 33.5125 0 31.1709L0 8.82909C0 6.48747 0.906934 4.24176 2.52129 2.58598C4.13564 0.930205 6.32517 0 8.60821 0V0Z" fill="#470137"/>
<path d="M21.0283 10.5201L16.0373 18.9692L21.3775 27.9419C21.4118 28.0046 21.4214 28.0785 21.4041 28.1483C21.3864 28.2128 21.3244 28.1719 21.2162 28.1901H17.4049C17.139 28.1901 16.9485 28.1801 16.8412 27.9964C16.4831 27.2807 16.1253 26.5695 15.7678 25.8628C15.4104 25.1561 15.0301 24.4361 14.6271 23.7028C14.2241 22.9689 13.8259 22.2255 13.4323 21.4728H13.4057C13.0476 22.2067 12.6765 22.9407 12.2925 23.6746C11.9084 24.4086 11.5281 25.1376 11.1517 25.8619C10.7759 26.5892 10.3919 27.3095 9.9995 28.0228C9.92771 28.1883 9.80272 28.2046 9.62368 28.2046H5.94799C5.87708 28.2046 5.83632 28.2337 5.82746 28.1601C5.81714 28.0929 5.83167 28.0241 5.86822 27.9673L11.0471 19.2401L6.00117 10.4919C5.9471 10.4183 5.93824 10.3592 5.97458 10.3101C5.99442 10.2866 6.01933 10.2682 6.04734 10.2563C6.07536 10.2445 6.10569 10.2396 6.1359 10.2419H9.91884C10.0015 10.2368 10.0841 10.2508 10.1608 10.2828C10.2247 10.3204 10.2795 10.3723 10.3212 10.4346C10.6433 11.1686 11.0014 11.9025 11.3955 12.6364C11.7896 13.3704 12.1876 14.0949 12.5894 14.8101C12.9918 15.5258 13.3629 16.2504 13.7026 16.9837H13.7292C14.0838 16.2316 14.446 15.4976 14.8159 14.7819C15.1858 14.0661 15.5613 13.3458 15.9425 12.621C16.3271 11.8937 16.6982 11.1737 17.0557 10.461C17.076 10.3921 17.1129 10.3296 17.163 10.2792C17.2291 10.2447 17.3036 10.2305 17.3774 10.2383H20.8927C20.9123 10.2332 20.9326 10.2322 20.9525 10.2352C20.9725 10.2383 20.9916 10.2453 21.0089 10.2559C21.0262 10.2666 21.0413 10.2806 21.0533 10.2972C21.0653 10.3138 21.074 10.3327 21.0789 10.3528C21.0859 10.3818 21.0847 10.4123 21.0754 10.4406C21.0661 10.4689 21.0492 10.494 21.0265 10.5128L21.0283 10.5201Z" fill="#FF61F6"/>
<path d="M28.7295 28.5464C27.4947 28.5658 26.2711 28.3028 25.1478 27.7764C24.1009 27.2796 23.2259 26.4683 22.6385 25.45C21.9926 24.2623 21.6769 22.9155 21.7256 21.5564C21.7154 20.2931 22.0303 19.0495 22.6385 17.9509C23.2652 16.8315 24.1868 15.9159 25.2976 15.3091C26.5959 14.615 28.046 14.2736 29.5095 14.3173C29.5982 14.3173 29.7151 14.3228 29.8587 14.3309C30.0023 14.3391 30.1716 14.3537 30.3684 14.3728V8.95003C30.3684 8.82185 30.4216 8.7573 30.5297 8.7573H33.9102C33.9288 8.75461 33.9477 8.75569 33.9659 8.76049C33.984 8.7653 34.0011 8.77372 34.0161 8.78529C34.031 8.79685 34.0437 8.81133 34.0532 8.8279C34.0627 8.84447 34.0689 8.8628 34.0716 8.88185C34.0737 8.89539 34.0737 8.90921 34.0716 8.92276V25.1918C34.0716 25.5046 34.0851 25.844 34.1123 26.21C34.1395 26.5761 34.162 26.9061 34.1797 27.2C34.1824 27.2568 34.1686 27.3132 34.1398 27.3618C34.111 27.4104 34.0688 27.449 34.0184 27.4728C33.1461 27.846 32.2375 28.1227 31.3079 28.2982C30.4574 28.4598 29.5945 28.5429 28.7295 28.5464ZM30.3657 25.1337V17.62C30.2206 17.5795 30.0723 17.5519 29.9226 17.5373C29.74 17.5185 29.5565 17.5094 29.3721 17.51C28.721 17.5037 28.0776 17.6547 27.494 17.9509C26.9254 18.2408 26.4401 18.6771 26.0856 19.2173C25.6918 19.868 25.4998 20.626 25.5351 21.3909C25.5221 21.991 25.6177 22.5884 25.817 23.1528C25.9797 23.6072 26.236 24.0202 26.5686 24.3637C26.8871 24.6793 27.2728 24.9146 27.6952 25.0509C28.1416 25.1997 28.6084 25.2743 29.0779 25.2719C29.3278 25.2719 29.5603 25.2625 29.7754 25.2437C29.9754 25.2285 30.1733 25.1916 30.3657 25.1337Z" fill="#FF61F6"/>
</svg>
