<?xml version="1.0" encoding="utf-8"?>
<!-- Generator: Adobe Illustrator 24.2.3, SVG Export Plug-In . SVG Version: 6.00 Build 0)  -->
<svg version="1.1" id="レイヤー_1" xmlns="http://www.w3.org/2000/svg" xmlns:xlink="http://www.w3.org/1999/xlink" x="0px"
	 y="0px" viewBox="0 0 128 128" style="enable-background:new 0 0 128 128;" xml:space="preserve">
<style type="text/css">
	.st0{fill:#FFFFFF;}
</style>
<g>
	<path d="M23.4,61.4c-0.1,0.4-0.2,0.7-0.3,1c-0.5,1.8-1,3.5-1.5,5.3c-0.8,2.9-1.8,5.8-2.7,8.7c-0.9,2.5-1.9,5-3,7.4
		c-0.8,1.7-1.7,3.2-2.7,4.8c-0.6,0.9-1.3,1.7-2.1,2.5c-0.6,0.6-1.1,1.1-1.7,1.7c-0.5,0.5-1,0.9-1.5,1.2c-0.4,0.2-0.8,0.4-1.2,0.4
		c-0.7,0-1.3-0.3-1.7-0.8c-0.4-0.4-0.7-0.9-0.9-1.5c-0.3-0.8-0.6-1.7-0.7-2.5c-0.1-0.8-0.2-1.7-0.2-2.5c0-0.7,0-1.4,0-2.2
		c0-0.7,0.1-1.3,0.2-2c0.1-0.8,0.2-1.6,0.4-2.4c0.2-1.1,0.5-2.1,0.8-3.2c0.6-2,1.3-3.9,2.1-5.8c1-2.3,2.3-4.6,3.7-6.7
		c0.8-1.1,1.6-2.2,2.6-3.2c0.8-0.9,1.7-1.7,2.6-2.6c0.8-0.8,1.6-1.4,2.5-2c0.7-0.4,1.4-0.8,2.2-0.9c0.7-0.2,1.4-0.1,2.1,0.1
		c0.1,0,0.2,0,0.2,0c0.1-0.5,0.2-0.9,0.3-1.3c0.3-1.6,0.7-3.2,1-4.8c0.2-1.1,0.4-2.2,0.6-3.3c0.2-0.9,0.3-1.8,0.4-2.7
		c0.1-0.7,0.2-1.4,0.2-2.1c0.1-1,0.2-1.9,0.2-2.9c0-0.7,0-1.4,0-2.1c0-0.9-0.1-1.8-0.4-2.6c-0.1-0.4-0.3-0.8-0.6-1.2
		c-0.4-0.4-0.9-0.7-1.4-0.7c-0.8,0-1.4,0.2-2.1,0.4c-1,0.4-2,0.9-2.8,1.5c-1.1,0.8-2.2,1.6-3.2,2.5c-0.9,0.8-1.7,1.7-2.5,2.7
		c-0.6,0.7-1.1,1.4-1.6,2.2c-0.3,0.5-0.6,1.1-0.8,1.6c-0.1,0.3-0.1,0.5,0,0.8l-2.6,2.6c-0.1-0.1-0.1-0.2-0.1-0.3
		c0-0.4,0.1-0.7,0.2-1c0.3-0.6,0.7-1.3,1.1-1.8c0.5-0.8,1.1-1.5,1.7-2.1c1.4-1.8,3.1-3.4,4.7-5c1-1,2.1-2,3.2-2.9
		c1.4-1.1,2.9-2.1,4.5-2.9c0.6-0.3,1.2-0.5,1.8-0.6c0.5-0.1,1-0.1,1.5,0c0.5,0.1,0.9,0.4,1.2,0.8c0.3,0.5,0.6,1,0.7,1.5
		c0.1,0.6,0.2,1.1,0.2,1.7c0,0.7,0,1.4,0,2.1c0,0.8-0.1,1.5-0.2,2.2c0,0.5-0.1,0.9-0.1,1.4c-0.1,0.5-0.1,1.1-0.2,1.6
		c-0.1,0.5-0.1,0.9-0.2,1.4c-0.1,0.4-0.1,0.8-0.2,1.2c-0.1,0.6-0.2,1.2-0.3,1.8c-0.1,0.6-0.2,1.1-0.3,1.7c-0.2,1.2-0.5,2.4-0.7,3.6
		c-0.2,1.1-0.5,2.2-0.8,3.3c-0.2,1-0.5,2-0.7,2.9c0,0,0,0.1,0,0.2c0.3,0.2,0.5,0.5,0.8,0.7c0.7,0.8,1.4,1.5,2,2.4
		c1.4,1.8,2.6,3.7,3.9,5.6c1.1,1.7,2.3,3.3,3.5,5c0.6,0.8,1.3,1.7,2,2.4c0.6,0.7,1.3,1.4,1.9,2c1.5,1.4,3.1,2.6,4.9,3.6
		c1.9,1.1,3.9,1.8,6,2.3c0.7,0.2,1.4,0.3,2.1,0.4c0.6,0.1,1.2,0.1,1.8,0.2c0.9,0.1,1.9,0.1,2.8,0c0.6,0,1.3-0.1,2-0.2
		c0.8-0.1,1.6-0.2,2.4-0.3c1.1-0.2,2.1-0.4,3.1-0.6c1.9-0.4,3.7-1,5.5-1.7c1.4-0.5,2.8-1.1,4.2-1.7c1.5-0.6,2.9-1.3,4.3-2.1
		c2.3-1.2,4.6-2.5,6.8-3.8c1.7-1,3.3-2.1,4.9-3.2c2.4-1.6,4.7-3.3,7-5c1.2-1,2.5-1.9,3.7-2.9c1.1-0.9,2.2-1.9,3.4-2.8
		c0.2-0.2,0.4-0.4,0.5-0.7c0.7-2.4,1.5-4.8,2.4-7.2c1.3-3.1,2.9-6.1,4.8-8.8c0.9-1.4,2-2.6,3.1-3.8c0.9-0.9,1.7-1.8,2.6-2.6
		c0.6-0.6,1.1-1.1,1.8-1.5c0.4-0.3,0.9-0.5,1.4-0.6c0.5-0.1,1,0,1.4,0.5c0.2,0.3,0.3,0.6,0.4,0.9c0.1,0.7,0,1.3-0.2,1.9
		c-0.4,1.2-0.9,2.4-1.5,3.5c-1.2,2.2-2.6,4.2-4.2,6.1c-0.8,1.1-1.7,2.1-2.6,3c-0.8,0.8-1.5,1.7-2.3,2.5c-1.2,1.3-2.5,2.5-3.8,3.8
		c-0.3,0.3-0.6,0.6-0.9,0.9c-0.1,0.1-0.2,0.2-0.2,0.4c-0.4,1.5-0.7,2.9-1,4.4c-0.2,1.1-0.4,2.2-0.6,3.3c-0.1,0.7-0.2,1.5-0.3,2.2
		c-0.1,0.7-0.2,1.5-0.3,2.2c0,0.5-0.1,1.1-0.1,1.6c0,0.8-0.1,1.7-0.2,2.5c0,0.3,0,0.7,0,1c0,0.6,0,1.2,0,1.7c0,0.8,0,1.5,0.1,2.3
		c0.1,0.9,0.2,1.8,0.3,2.8c0.4,2.5,1.1,5,2.4,7.3c1.4,2.5,3.3,4.7,5.8,6.3c1.2,0.8,2.5,1.4,3.8,1.9c1.1,0.4,2.3,0.8,3.5,1
		c0.8,0.2,1.6,0.2,2.4,0.1c0.9,0,1.8-0.4,2.6-1c0.1-0.1,0.1-0.1,0.3-0.1c0,0.1-0.1,0.2-0.2,0.2c-0.8,0.8-1.5,1.5-2.3,2.3
		c-0.5,0.4-1,0.7-1.6,0.9c-0.9,0.3-1.8,0.4-2.7,0.3c-1.7-0.2-3.2-0.5-4.8-1.1c-1.4-0.5-2.8-1.2-4-2.1c-1-0.7-2-1.5-2.8-2.4
		c-1.4-1.5-2.5-3.2-3.4-5.1c-0.7-1.7-1.3-3.4-1.6-5.2c-0.1-0.7-0.2-1.5-0.3-2.2c-0.1-0.6-0.1-1.2-0.2-1.8c-0.1-1.5-0.2-2.9-0.1-4.4
		c0-0.8,0.1-1.5,0.1-2.3c0.1-0.8,0.1-1.7,0.2-2.5s0.2-1.7,0.3-2.5c0.2-1.2,0.4-2.5,0.6-3.7c0.3-1.4,0.6-2.7,0.9-4.1
		c0.1-0.5,0.2-0.9,0.3-1.4c0,0,0-0.1,0-0.2c-0.1,0.1-0.2,0.2-0.2,0.2c-1.3,1.1-2.5,2.2-3.8,3.3c-1.5,1.2-3,2.5-4.6,3.6
		c-1.3,1-2.6,2-3.9,2.9c-2,1.5-4.1,2.9-6.2,4.3c-2,1.3-4.1,2.6-6.1,3.7c-1.7,0.9-3.3,1.8-5.1,2.7C71,80,68.4,81.1,65.8,82
		c-1.7,0.6-3.4,1.1-5.2,1.5c-1.1,0.2-2.1,0.5-3.2,0.6c-0.8,0.1-1.7,0.2-2.5,0.3c-1.2,0.1-2.4,0.1-3.6,0.1c-0.6,0-1.2-0.1-1.9-0.2
		c-1-0.1-2-0.3-3-0.5c-2.4-0.6-4.7-1.5-6.7-2.8c-1.2-0.7-2.3-1.5-3.3-2.5c-1.2-1.1-2.3-2.3-3.3-3.5c-1.3-1.6-2.5-3.2-3.6-4.9
		c-1.1-1.5-2.1-3.1-3.1-4.7c-0.7-1.1-1.5-2.1-2.3-3.1C24,62.1,23.7,61.7,23.4,61.4z M21.8,59.8c-0.1-0.1-0.1-0.1-0.2-0.1
		c-0.2-0.1-0.3-0.2-0.4-0.3c-1.2-0.8-2.7-1-4.1-0.5c-0.7,0.2-1.3,0.6-1.8,1c-0.4,0.2-0.7,0.5-1,0.9c-0.4,0.5-0.8,1-1.1,1.5
		c-1.2,1.7-2.3,3.6-3.2,5.5c-1,2.1-1.9,4.4-2.6,6.6c-0.7,2.4-1.2,4.8-1.5,7.2c-0.1,0.8-0.1,1.6-0.1,2.4c0,0.5,0,1.1,0.1,1.6
		c0,0.7,0.2,1.4,0.3,2c0.2,0.9,0.5,1.7,0.9,2.5c0.2,0.4,0.5,0.8,0.9,1.1c0.4,0.3,0.8,0.5,1.3,0.5c0.3,0,0.5-0.1,0.8-0.2
		c0.2-0.1,0.3-0.2,0.4-0.3c0.5-0.7,0.9-1.4,1.3-2.1c1-1.7,1.8-3.4,2.5-5.2c0.9-2,1.6-4.1,2.3-6.1c0.5-1.6,1-3.2,1.5-4.7
		c0.4-1.3,0.8-2.6,1.2-4c0.7-2.7,1.4-5.3,2.2-7.9C21.6,60.7,21.7,60.3,21.8,59.8z M106.3,55c1.1-1,2.1-1.9,3.1-3
		c1.2-1.2,2.3-2.5,3.4-3.8c0.9-1.1,1.8-2.3,2.6-3.4c0.9-1.2,1.7-2.5,2.4-3.9c0.5-0.9,0.9-1.9,1.2-2.9c0.2-0.6,0.2-1.2,0.2-1.8
		c-0.1-0.7-0.6-1.4-1.6-1.2c-0.8,0.1-1.5,0.5-2,1.1c-0.6,0.7-1.1,1.4-1.7,2.1c-1.1,1.5-2.1,3-2.9,4.6c-1,1.9-2,4-2.7,6
		c-0.6,1.5-1.1,3.1-1.6,4.7C106.5,54.1,106.4,54.6,106.3,55z"/>
	<path d="M95.6,61.1c-0.1,0.1-0.1,0.2-0.2,0.2c-0.7,0.7-1.5,1.5-2.2,2.2c-0.2,0.2-0.4,0.2-0.6,0.1c-0.3-0.1-0.5-0.3-0.8-0.5
		c-0.5-0.5-0.9-0.9-1.3-1.5c-1.6-2.1-3-4.3-4.4-6.5c-1.1-1.8-2.1-3.6-3.1-5.4c-0.8-1.5-1.6-3-2.4-4.5c0-0.1-0.1-0.2-0.1-0.2
		c-0.3,0.4-0.7,0.8-1,1.1c-0.9,1.1-1.8,2.3-2.7,3.4c-0.8,1.1-1.5,2.1-2.3,3.2c-1.3,1.9-2.6,3.9-3.7,5.9c-1,1.7-1.9,3.4-2.8,5.2
		c-0.8,1.6-1.4,3.2-1.8,4.9c0,0.2-0.1,0.3-0.2,0.4c-0.7,0.7-1.5,1.5-2.2,2.2c-0.1,0.1-0.1,0.2-0.3,0.2c0,0,0-0.1,0-0.2
		c0.3-1.4,0.8-2.7,1.3-4c0.9-2.1,1.9-4.1,3.1-6c1.2-2,2.4-4,3.7-5.9c1.1-1.5,2.1-3.1,3.3-4.6c1-1.3,2.1-2.6,3.1-3.8
		c0.7-0.8,1.3-1.5,2-2.3c0,0,0-0.1,0.1-0.1L80,43.7c-0.9-1.8-1.8-3.5-2.7-5.3c-1.1-2.2-2-4.4-2.9-6.7c-0.2-0.4-0.4-0.9-0.6-1.3
		c-0.1-0.2-0.2-0.3-0.3-0.4c0,0,0,0,0,0c0,0,0,0,0,0c0.1-0.1,0.2-0.2,0.3-0.3c0.7-0.7,1.5-1.5,2.2-2.2c0,0,0,0,0.1,0
		c0.1,0.1,0.2,0.2,0.3,0.4c0.2,0.5,0.4,0.9,0.6,1.4c0.7,1.7,1.4,3.4,2.2,5c0.6,1.2,1.2,2.4,1.8,3.6c0.6,1.3,1.3,2.6,1.9,3.8L83,42
		c0.1-0.1,0.1-0.1,0.2-0.2c1-1,1.9-1.9,2.9-2.9c0.9-0.9,1.9-1.8,2.8-2.6c1.9-1.7,3.8-3.3,5.9-4.9c1.2-0.9,2.4-1.7,3.7-2.4
		c0.5-0.3,1.1-0.6,1.7-0.7c0.3-0.1,0.7-0.1,1,0c0.1,0,0.3,0,0.4,0.2c-0.1,0.2-2,2.1-2.5,2.6c-0.1,0-0.2-0.1-0.4-0.1
		c-0.4-0.1-0.8,0-1.1,0.1c-0.7,0.2-1.3,0.5-1.9,0.9c-1.3,0.8-2.6,1.7-3.9,2.7c-1.4,1.1-2.8,2.2-4.1,3.4c-0.8,0.8-1.7,1.5-2.5,2.3
		c-0.6,0.6-1.2,1.3-1.9,1.9c0,0-0.1,0.1-0.1,0.2c0.1,0.2,0.2,0.3,0.2,0.5c0.6,1.1,1.2,2.3,1.8,3.4c1,1.9,2.1,3.8,3.2,5.7
		c1.3,2.1,2.6,4.2,4.1,6.2c0.6,0.8,1.1,1.5,1.8,2.3c0.2,0.2,0.4,0.4,0.6,0.6C95.1,61,95.3,61.1,95.6,61.1z"/>
	<path d="M56.7,62.1l0.4-0.3c0,0.1,0,0.2,0,0.2c0,0.1-0.1,0.2-0.2,0.2c-0.8,0.8-1.5,1.5-2.3,2.3c-0.3,0.3-0.6,0.3-1,0.1
		c-0.3-0.3-0.6-0.6-0.9-0.9c-0.6-0.8-1.2-1.7-1.7-2.5c-0.6-1.1-1.3-2.2-1.8-3.4c-0.7-1.5-1.4-3.1-2.1-4.6c-0.2-0.4-0.3-0.7-0.5-1.1
		c0-0.1-0.1-0.1-0.1-0.2c-0.3,0.7-0.6,1.3-0.9,1.9c-0.8,1.6-1.4,3.2-2,4.8c-0.4,1.2-0.8,2.3-1.2,3.5c-0.4,1.3-0.8,2.6-1.1,4
		c-0.1,0.4-0.1,0.8-0.2,1.2c0,0.2,0,0.5,0.1,0.7c0,0,0,0.1,0.1,0.1l-2.5,2.5c-0.1-0.1-0.2-0.2-0.2-0.3c0-0.2-0.1-0.5-0.1-0.7
		c0.2-1.3,0.5-2.6,0.9-3.9c0.7-2.5,1.6-5,2.6-7.4c0.7-1.8,1.5-3.5,2.5-5.2c0.4-0.8,0.9-1.6,1.3-2.3l0.1-0.2
		c-0.1-0.3-0.2-0.5-0.3-0.8c-1-2.2-2-4.4-3.2-6.5c-1.4-2.7-2.9-5.3-4.5-7.8c-0.5-0.8-1.1-1.6-1.6-2.4c-0.2-0.3-0.5-0.6-0.8-0.8
		c-0.1-0.1-0.2-0.1-0.3-0.2c0,0,0-0.1,0.1-0.1c0.8-0.8,1.6-1.6,2.4-2.4c0,0,0,0,0.1,0c0.2,0,0.3,0.1,0.5,0.3c0.4,0.3,0.7,0.7,1,1.1
		c0.9,1.2,1.7,2.5,2.4,3.7c1.1,1.9,2.2,3.8,3.2,5.8c1,1.9,1.9,3.8,2.8,5.8c0.2,0.3,0.3,0.6,0.4,0.9c0.1-0.1,0.1-0.1,0.2-0.2
		c1-1.5,2.1-3.1,3.2-4.5c1-1.3,2-2.6,3-3.8c1-1.2,2-2.3,3-3.5c1.1-1.3,2.4-2.5,3.6-3.7c0.5-0.5,1-0.9,1.5-1.4
		c0.2-0.2,0.5-0.3,0.8-0.4c0.2-0.1,0.5,0,0.6,0.2l-2.5,2.5c-0.2-0.2-0.5-0.2-0.8,0c-0.3,0.2-0.6,0.4-0.8,0.7c-0.6,0.7-1.2,1.3-1.8,2
		c-0.8,0.9-1.5,1.8-2.3,2.8c-0.9,1.1-1.7,2.2-2.6,3.3c-1.2,1.7-2.4,3.4-3.5,5.2c-0.3,0.5-0.6,1-0.9,1.5c0,0.1-0.1,0.1-0.1,0.2
		c0.2,0.3,0.3,0.6,0.4,1c0.6,1.4,1.3,2.8,1.9,4.3c0.4,1,0.9,1.9,1.4,2.8c0.8,1.6,1.7,3.1,2.7,4.5c0.3,0.5,0.7,0.9,1.1,1.2
		C56.3,62.1,56.5,62.2,56.7,62.1z"/>
	<path d="M69.6,97.3l-2.5,2.5c-0.2,0-0.3-0.2-0.3-0.3c-0.1-0.3-0.1-0.6-0.2-1c-0.1-0.7-0.1-1.4-0.1-2.1c-0.1-1.2,0-2.4,0-3.6
		c0-0.8,0.1-1.5,0.1-2.3s0.1-1.6,0.2-2.4c0.1-0.6,0.1-1.2,0.2-1.7c0.1-0.8,0.3-1.7,0.4-2.5c0-0.2,0.1-0.3,0.2-0.5
		c0.8-0.7,1.5-1.5,2.2-2.2c0.1-0.1,0.1-0.2,0.3-0.2c-0.1,0.3-0.1,0.5-0.2,0.8c-0.1,0.6-0.2,1.1-0.3,1.7c-0.1,0.6-0.2,1.1-0.2,1.7
		c0,0.5-0.1,1-0.1,1.5c0,0.7-0.1,1.4-0.2,2.1c0,0.2,0,0.4,0,0.6c0,0.2,0,0.4,0,0.7c0.1-0.1,0.1-0.1,0.2-0.2c0.7-0.7,1.5-1.5,2.2-2.2
		c0.6-0.6,1.2-1.1,1.9-1.5c0.6-0.3,1.1-0.5,1.8-0.5c0.3,0,0.5,0.1,0.7,0.3c0.3,0.2,0.3,0.3,0.2,0.7c-0.7,0.8-2.3,2.4-2.6,2.5
		c0,0,0-0.1,0-0.1c0-0.2,0-0.4-0.2-0.4c-0.2-0.2-0.4-0.2-0.6-0.2c-0.4,0-0.8,0-1.2,0.2c-0.2,0.1-0.5,0.2-0.7,0.3
		c-0.1,0.1-0.2,0.2-0.3,0.3c-0.3,0.5-0.4,1.1-0.3,1.6c0.1,0.6,0.4,1.1,1,1.3c0.5,0.3,1,0.4,1.6,0.5c0.5,0.1,1.1,0.1,1.6-0.1
		c0.2,0,0.4-0.1,0.6-0.2c0-0.2,0-0.3,0-0.5c-0.1-1.3,0.1-2.6,0.7-3.8c0.2-0.3,0.4-0.6,0.6-0.9c0.7-0.7,1.4-1.4,2.1-2.1
		c0.2-0.2,0.4-0.4,0.7-0.5c0.3-0.1,0.6-0.2,0.9,0c0.4,0.2,0.7,0.4,0.9,0.8c0.5,0.6,0.8,1.3,1,2c0,0,0,0.1,0,0.2s0,0.1,0,0.2l0.2,0
		c0,0.1,0.1,0.2,0.1,0.3c0.1,0.3,0.2,0.6,0.4,0.9c0.3,0.5,0.8,0.9,1.3,1.1c0,0,0.1,0,0.1,0c0,0,0,0,0.1,0c0-0.4-0.6-4.6-0.8-4.9
		c-0.5,0.2-0.9,0.4-1.4,0.3c-0.1,0-0.2,0-0.2,0c0,0-0.1,0-0.1-0.1c0-0.1,0.1-0.2,0.2-0.2c0.4-0.4,0.8-0.8,1.1-1.1
		c0.1-0.1,0.2-0.2,0.2-0.2c-0.1-0.5-0.3-0.9-0.3-1.3l2.6-2.6c0.2,0.8,0.5,1.7,0.6,2.5c0.2,0,0.3-0.1,0.4-0.2c0.5-0.5,1-1,1.5-1.5
		c0.3-0.3,0.6-0.6,0.9-0.9c0.1,0,0.2,0.2,0.2,0.3c0,0.2,0,0.3-0.2,0.5c-0.2,0.2-0.4,0.5-0.6,0.7c-0.6,0.6-1.2,1.2-1.8,1.8
		c-0.1,0.1-0.2,0.2-0.2,0.2c0.1,1,1,7.2,1.3,7.7l0.4-0.3c0,0.1,0,0.1,0,0.2c-0.1,0.2-0.2,0.4-0.4,0.6c-0.7,0.7-1.4,1.4-2.1,2.1
		c-0.1,0.1-0.2,0.2-0.3,0.3c-0.2,0-0.2-0.2-0.3-0.3c-0.1-0.4-0.2-0.9-0.3-1.3c-0.1-0.5-0.2-0.9-0.2-1.4c0,0,0-0.1-0.1-0.2l-0.5,0.5
		c-0.4,0.4-0.8,0.8-1.2,1.2c0,0-0.1,0.1-0.2,0.2c-0.2,0.3-0.6,0.3-0.9,0.2c-0.3-0.1-0.6-0.3-0.9-0.6c-0.2-0.1-0.3-0.3-0.5-0.4
		l-0.7,0.6c0,0,0-0.1,0-0.1c0,0,0-0.1,0-0.2c-0.1,0.1-0.2,0.2-0.3,0.3c-0.5,0.5-0.9,0.9-1.4,1.4c-0.2,0.2-0.5,0.4-0.8,0.6
		c-0.4,0.2-0.9,0.1-1.2-0.2c-0.3-0.3-0.6-0.7-0.7-1.1c0-0.1,0-0.2-0.1-0.2L74,93.8c-0.4,0.4-0.7,0.7-1.1,1.1
		c-0.1,0.1-0.2,0.2-0.3,0.2c-0.7,0.3-1.4,0.4-2.1,0.3c-0.4-0.1-0.8-0.2-1.2-0.2c0,0.1,0,0.1,0,0.2c0,0.5,0.1,0.9,0.2,1.4
		C69.3,97,69.4,97.2,69.6,97.3z M77.6,87.4c0,0.3-0.1,0.6-0.1,1c-0.1,0.7,0,1.4,0.2,2c0.1,0.5,0.4,0.9,0.7,1.2
		c0.2,0.1,0.3,0.2,0.5,0.2c0.1-0.3,0.3-0.6,0.4-0.9c0.1-0.2,0.1-0.5,0-0.7c-0.2-0.8-0.5-1.4-0.9-2.1C78.2,87.8,78,87.6,77.6,87.4
		L77.6,87.4z"/>
	<path d="M43.3,93.8c0.1,0,0.1-0.1,0.2-0.1c0.8-0.8,1.5-1.5,2.3-2.3c0.3-0.3,0.6-0.6,0.9-0.8c0.1-0.1,0.2-0.2,0.3-0.2
		c0.1-0.1,0.3-0.1,0.4,0.1c0,0,0,0.1,0,0.2c0,0.1,0,0.2,0,0.3c0,0.5-0.1,1-0.2,1.5c-0.3,1-0.5,1.9-0.8,2.9c0,0.2-0.1,0.3-0.1,0.5h0
		c0,0,0,0,0,0c0,0,0.1-0.1,0.1-0.2c0.7-0.9,1.3-1.8,2.1-2.7c0.3-0.3,0.5-0.6,0.8-0.9c0.7-0.7,1.4-1.4,2.1-2.1
		c0.2-0.2,0.3-0.3,0.5-0.4c0,0,0.1-0.1,0.2-0.1c0.3-0.2,0.5-0.1,0.6,0.3c0.1,0.3,0.1,0.6,0,1c0,0.5-0.1,1-0.2,1.5
		c-0.1,0.5-0.1,1-0.2,1.4c0,0.5,0,1.1,0,1.6c0.1,0.3,0.2,0.6,0.6,0.6c0,0,0.1,0,0.1,0.1c-0.1,0.2-2,2.1-2.5,2.5
		c-0.4,0-0.6-0.1-0.7-0.5c-0.1-0.2-0.1-0.4-0.1-0.6c0-0.7,0-1.4,0.1-2c0.1-0.6,0.1-1.2,0.2-1.9c0-0.3,0-0.6,0-0.8
		c0-0.2,0-0.3-0.1-0.5C50,92,50,92,49.9,92c-0.6,0.9-1.3,1.9-2,2.8c-0.4,0.6-0.8,1.1-1.2,1.7c-0.1,0.1-0.2,0.2-0.3,0.3
		c-0.7,0.7-1.4,1.4-2.1,2.1c-0.1,0.1-0.2,0.2-0.3,0.3c-0.1,0-0.2,0.1-0.3,0.2c-0.2,0-0.2-0.2-0.2-0.4l0,0c0-0.2,0.1-0.4,0.1-0.6
		c0.2-0.8,0.5-1.6,0.7-2.4c0.2-0.7,0.3-1.4,0.5-2.1c0-0.3,0-0.5,0-0.8c0-0.1,0-0.2-0.2-0.2c-0.2,0-0.2,0.2-0.3,0.2
		c-0.3,0.3-0.5,0.6-0.8,1c-0.5,0.7-0.9,1.3-1.4,2c-0.2,0.4-0.4,0.8-0.6,1.2c-0.1,0.1-0.2,0.3-0.3,0.4c-0.7,0.7-1.5,1.5-2.2,2.2
		c-0.1,0.1-0.2,0.1-0.2,0.2c-0.1-0.1,0-0.2,0-0.3c0.1-0.2,0.2-0.5,0.4-0.7c0.4-0.8,0.8-1.5,1.1-2.3c0.5-1.2,0.9-2.5,1.3-3.7
		c0.2-0.6,0.3-1.2,0.3-1.8c0-0.2,0-0.4-0.1-0.6c-0.1-0.3-0.3-0.5-0.6-0.4c-0.4,0.1-0.8,0.3-1,0.5c-0.1,0.1-0.2,0.2-0.2,0.4
		c0,0.1-0.1,0.2-0.2,0.3c-0.7,0.7-1.5,1.5-2.2,2.2c-0.1,0.1-0.1,0.2-0.2,0.2c-0.1-0.1,0-0.2,0-0.2c0.1-0.2,0.2-0.4,0.4-0.6
		c0.4-0.4,0.7-0.9,1.1-1.3c0.8-0.8,1.7-1.7,2.5-2.5c0.5-0.5,1-0.9,1.6-1.2c0.2-0.1,0.4-0.2,0.6-0.3c0.6-0.2,0.9,0.1,1,0.6
		c0,0.4,0,0.8,0,1.1c-0.2,1.1-0.5,2.2-0.9,3.3c-0.1,0.3-0.2,0.6-0.3,0.9C43.3,93.7,43.3,93.7,43.3,93.8L43.3,93.8L43.3,93.8z"/>
	<path d="M41.1,92.2c0,0.1-0.1,0.2-0.2,0.2c-0.2,0.2-0.4,0.4-0.6,0.6c-0.5,0.6-1.1,1.1-1.6,1.6c-0.7,0.8-1.6,1.3-2.6,1.7
		c-0.6,0.3-1.3,0.4-2,0.3c-0.2,0-0.5-0.1-0.7-0.1c-0.4-0.2-0.7-0.4-0.9-0.9c-0.1,0-0.1,0.1-0.2,0.2c-0.4,0.4-0.8,0.8-1.1,1.2
		c-0.1,0.1-0.1,0.2-0.2,0.2c-0.8,0.8-1.5,1.5-2.2,2.2c-0.3,0.3-0.6,0.6-1,0.8c-0.2,0.2-0.5,0.3-0.8,0.3c-0.4,0.1-0.8-0.1-1-0.4
		c-0.2-0.3-0.3-0.6-0.3-0.9c-0.1-0.8-0.1-1.5,0.1-2.3c0.1-0.8,0.4-1.6,0.6-2.3c0.5-1.4,1.3-2.6,2.3-3.7c0.7-0.7,1.4-1.4,2.1-2.1
		c0.3-0.3,0.6-0.6,1-0.8c0.3-0.2,0.6-0.3,0.9-0.3c0.6-0.1,1.1,0.2,1.5,0.6c0.5,0.6,0.8,1.3,0.9,2.1c0.1,0.6,0,1.1-0.1,1.6
		c-0.1,0.5,0,1.1,0.4,1.5c0.2,0.2,0.4,0.3,0.6,0.4c0.4,0.2,0.9,0.2,1.3,0.1c1.2-0.2,2.4-0.8,3.3-1.6C40.8,92.3,40.9,92.2,41.1,92.2
		L41.1,92.2z M30,90.4c-0.2,0.5-0.5,0.9-0.7,1.4c-0.5,1.1-0.8,2.3-0.9,3.4c0,0.5,0,1,0,1.5c0,0.3,0.2,0.6,0.3,0.8
		c0.3,0.4,0.8,0.4,1.1,0.2c0.1-0.1,0.2-0.1,0.2-0.2c0.6-0.9,1.1-1.7,1.7-2.6c0.2-0.4,0.4-0.8,0.8-1.1c0-0.1,0.1-0.2,0.1-0.3
		c0-0.4,0-0.8-0.1-1.1c-0.1-0.7-0.5-1.3-1-1.8C31.1,90.3,30.6,90.2,30,90.4L30,90.4z"/>
	<path d="M57.1,88.3c0,0.1,0,0.2,0,0.2c-0.2,0.5-0.3,1.1-0.3,1.6c-0.1,0.7-0.2,1.4-0.2,2c0,0.8,0,1.6,0,2.4c0,0.4,0.1,0.8,0.2,1.2
		c0.1,0.3,0.2,0.5,0.4,0.7c0.1,0.2,0.4,0.3,0.6,0.3c0.1-0.2,0.3-0.5,0.4-0.8c0.5-1,1-2,1.4-3c0.3-0.7,0.6-1.4,1-2.1
		c0.1-0.2,0.2-0.3,0.3-0.4c0.7-0.7,1.5-1.5,2.2-2.2c0.1-0.1,0.2-0.1,0.2-0.2c0.2,0.1,0.1,0.2,0.1,0.3c0,0.2,0,0.4-0.1,0.6
		c0,0.5-0.1,0.9-0.2,1.4c0,0.3,0,0.5-0.1,0.8c0,0.5-0.1,1,0,1.5c0,0.7,0.1,1.4,0.3,2c0.2,0.5,0.4,0.9,0.8,1.2c0.3,0.3,0.7,0.4,1,0.4
		c0.3,0,0.5-0.2,0.7-0.3c0.1-0.1,0.2-0.2,0.3-0.1c0,0.1-0.1,0.2-0.2,0.3c-0.7,0.7-1.4,1.4-2.1,2.1c-0.1,0.1-0.2,0.2-0.4,0.3
		c-0.2,0.2-0.5,0.3-0.8,0.3c-0.4,0-0.8-0.1-1.1-0.4c-0.4-0.4-0.7-0.8-0.8-1.3c-0.2-0.5-0.3-1-0.3-1.5c0-0.2,0-0.4,0-0.6
		c0-0.3,0-0.6,0-0.8c-0.1,0.2-0.3,0.4-0.4,0.6c-0.4,0.6-0.8,1.2-1.4,1.7c-0.6,0.6-1.3,1.3-1.9,1.9c-0.2,0.2-0.5,0.4-0.8,0.6
		c-0.2,0.1-0.4,0.2-0.6,0.2c-0.3,0-0.6-0.1-0.8-0.4c-0.2-0.3-0.3-0.6-0.4-0.9C54,97.6,54,97.2,54,96.7c0-0.6,0-1.3,0-1.9
		c0-0.7,0.1-1.4,0.2-2.1c0.1-0.5,0.2-1,0.2-1.5c0-0.3,0.2-0.5,0.4-0.7c0.7-0.7,1.4-1.4,2.1-2.1C56.9,88.4,57,88.4,57.1,88.3z"/>
	<path d="M88.7,83.3c0.9-0.9,1.7-1.7,2.5-2.6c0,0,0.1,0.1,0.1,0.2c0.2,0.6,0.3,1.2,0.4,1.9c0.1,0.7,0.2,1.5,0.2,2.2
		c0.1,0.7,0.2,1.4,0.4,2.1c0,0.1,0,0.2,0.1,0.2c0,0,0,0,0.1,0l0.2-0.9c0.2-0.9,0.4-1.9,0.6-2.8c0-0.2,0.2-0.4,0.3-0.6
		c0.7-0.7,1.4-1.4,2.1-2.1c0.1-0.1,0.2-0.2,0.2-0.2c0.1,0.1,0.2,0.2,0.3,0.3c0.2,0.4,0.3,0.8,0.5,1.2c0.3,0.9,0.9,1.7,1.6,2.4
		c0.4,0.4,0.8,0.6,1.3,0.8c0.4,0.2,0.9,0.1,1.3-0.2c0.1,0,0.2-0.1,0.3-0.1c0,0,0,0.1-0.1,0.2c0,0.1-0.1,0.1-0.2,0.2
		c-0.7,0.7-1.4,1.4-2.1,2.1c-0.2,0.2-0.3,0.3-0.5,0.4c-0.4,0.2-0.8,0.2-1.1,0.1c-0.5-0.2-0.9-0.4-1.3-0.8c-0.4-0.3-0.7-0.7-1-1.1
		c0,0-0.1-0.1-0.1-0.2c0,0.1-0.1,0.2-0.1,0.3c-0.1,0.3-0.2,0.6-0.4,0.9c-0.2,0.4-0.4,0.8-0.8,1.1c-0.7,0.7-1.3,1.3-2,2
		c-0.1,0.1-0.2,0.2-0.3,0.3c-0.4,0.3-0.8,0.2-1.1-0.2c-0.2-0.3-0.4-0.6-0.5-0.9c-0.2-0.6-0.3-1.2-0.4-1.9c-0.1-0.7-0.2-1.5-0.2-2.2
		c-0.1-0.7-0.2-1.4-0.4-2C88.8,83.4,88.7,83.4,88.7,83.3z"/>
	<path class="st0" d="M21.8,59.8c-0.1,0.5-0.2,0.9-0.3,1.3c-0.7,2.7-1.4,5.3-2.2,7.9c-0.4,1.3-0.8,2.7-1.2,4c-0.5,1.6-1,3.2-1.5,4.7
		c-0.7,2.1-1.5,4.1-2.3,6.1c-0.7,1.8-1.6,3.5-2.5,5.2c-0.4,0.7-0.9,1.4-1.3,2.1c-0.1,0.1-0.2,0.2-0.4,0.3c-0.2,0.1-0.5,0.2-0.8,0.2
		c-0.5,0-1-0.1-1.3-0.5c-0.4-0.3-0.6-0.7-0.9-1.1c-0.4-0.8-0.7-1.6-0.9-2.5c-0.2-0.7-0.3-1.3-0.3-2c0-0.5-0.1-1.1-0.1-1.6
		c0-0.8,0-1.6,0.1-2.4c0.2-2.5,0.7-4.9,1.5-7.2c0.7-2.3,1.5-4.5,2.6-6.6c0.9-1.9,2-3.8,3.2-5.5c0.4-0.5,0.8-1,1.1-1.5
		c0.3-0.3,0.6-0.6,1-0.9c0.6-0.4,1.2-0.8,1.8-1c1.4-0.5,2.9-0.3,4.1,0.5c0.2,0.1,0.3,0.2,0.4,0.3C21.7,59.8,21.7,59.8,21.8,59.8z"/>
	<path class="st0" d="M106.3,55c0.1-0.5,0.3-1,0.4-1.4c0.5-1.6,1-3.2,1.6-4.7c0.8-2.1,1.7-4.1,2.7-6c0.9-1.6,1.8-3.2,2.9-4.7
		c0.5-0.7,1.1-1.5,1.7-2.1c0.5-0.6,1.2-1,2-1.1c1-0.2,1.5,0.5,1.6,1.2c0.1,0.6,0,1.2-0.2,1.8c-0.3,1-0.7,2-1.2,2.9
		c-0.7,1.3-1.5,2.7-2.4,3.9c-0.8,1.2-1.7,2.3-2.6,3.4c-1.1,1.3-2.2,2.6-3.4,3.8C108.4,53.1,107.3,54.1,106.3,55z"/>
	<path class="st0" d="M77.6,87.4c0.3,0.2,0.6,0.4,0.8,0.8c0.4,0.6,0.7,1.3,0.9,2.1c0.1,0.2,0,0.5,0,0.7c-0.2,0.3-0.3,0.6-0.4,0.9
		c-0.2,0-0.4-0.1-0.5-0.2c-0.4-0.3-0.6-0.8-0.7-1.2c-0.2-0.7-0.2-1.3-0.2-2C77.6,88.1,77.6,87.7,77.6,87.4z"/>
	<path class="st0" d="M43.3,93.8L43.3,93.8L43.3,93.8L43.3,93.8z"/>
	<path class="st0" d="M46.4,95.7C46.4,95.7,46.4,95.7,46.4,95.7L46.4,95.7L46.4,95.7z"/>
	<path class="st0" d="M30,90.4c0.6-0.2,1.1-0.1,1.5,0.3c0.5,0.5,0.8,1.1,1,1.8c0.1,0.4,0.1,0.8,0.1,1.1c0,0.1,0,0.2-0.1,0.3
		c-0.3,0.3-0.5,0.7-0.8,1.1c-0.6,0.9-1.1,1.7-1.7,2.6c-0.2,0.4-0.8,0.5-1.1,0.2c-0.1,0-0.2-0.1-0.2-0.2c-0.2-0.2-0.3-0.5-0.3-0.8
		c-0.1-0.5-0.1-1,0-1.5c0.1-1.2,0.4-2.3,0.9-3.4C29.5,91.4,29.8,90.9,30,90.4z"/>
</g>
</svg>
