<?xml version="1.0" encoding="utf-8"?>
<!-- Generator: Adobe Illustrator 24.2.1, SVG Export Plug-In . SVG Version: 6.00 Build 0)  -->
<svg version="1.1" id="レイヤー_1" xmlns="http://www.w3.org/2000/svg" xmlns:xlink="http://www.w3.org/1999/xlink" x="0px"
	 y="0px" viewBox="0 0 841.9 595.3" style="enable-background:new 0 0 841.9 595.3;" xml:space="preserve">
<style type="text/css">
	.st0{fill:#FFFFFF;}
</style>
<path d="M151.8,242c-0.6,2.6-1.3,4.6-1.8,6.8c-3.3,11.7-6.6,23.4-9.9,35.1c-5.6,19.5-11.7,38.8-18.3,57.8
	c-5.7,16.8-12.4,33.3-19.8,49.3c-5.1,11-11,21.6-17.8,31.7c-4.1,5.9-8.7,11.5-13.8,16.6c-3.8,3.8-7.5,7.6-11.4,11.4
	c-3,3.1-6.4,5.8-9.9,8.2c-2.4,1.5-5.1,2.4-7.9,2.7c-4.8,0.3-8.5-1.9-11.6-5.4c-2.5-2.9-4.4-6.1-5.8-9.7c-2.2-5.4-3.8-11-4.7-16.7
	c-0.9-5.5-1.4-11-1.6-16.6c-0.2-4.8,0-9.6,0.2-14.4c0.2-4.4,0.9-8.9,1.4-13.3c0.6-5.5,1.6-10.9,2.7-16.3c1.4-7.1,3.2-14.1,5.2-21.1
	c3.8-13.1,8.5-26.1,14-38.5c6.8-15.6,15.1-30.6,24.8-44.7c5.2-7.5,10.9-14.7,17.2-21.4c5.6-5.7,11.2-11.4,17-17.1
	c5.1-5.1,10.6-9.5,16.6-13.2c4.5-2.9,9.5-5.1,14.7-6.2c4.7-1,9.6-0.9,14.2,0.5c0.4,0.1,1,0.2,1.5,0.3c0.8-3.1,1.4-6,2-8.9
	c2.3-10.7,4.6-21.4,6.8-32.2c1.5-7.3,2.7-14.7,3.9-22.2c1.1-6,2-12.2,2.9-18.3c0.6-4.5,1.1-9.2,1.6-13.7c0.8-6.4,1.4-12.7,1.5-19.1
	c0.1-4.6,0.3-9.4,0.2-14c0-5.9-0.9-11.7-2.6-17.3c-0.9-2.9-2.2-5.5-4.1-7.9c-2.4-2.9-5.8-4.7-9.5-4.8c-5-0.3-9.5,1-14,2.7
	c-6.7,2.6-13,5.9-18.9,9.9c-7.5,5.1-14.9,10.6-21.6,16.6c-6,5.5-11.6,11.4-16.7,17.8c-3.9,4.6-7.5,9.4-10.9,14.4
	c-2.3,3.3-4.2,7-5.5,10.8c-0.6,1.7-0.8,3.6-0.3,5.3l-17,17c-0.6-0.4-0.6-1.2-0.6-1.9c0-2.4,0.5-4.7,1.6-6.9
	c1.9-4.3,4.4-8.4,7.2-12.3c3.6-5,7.3-9.7,11.2-14.3C73.8,96.7,84.6,86,95.4,75.5c6.9-6.8,14-13.3,21.5-19.4
	c9.4-7.5,19.1-14.3,30-19.4c3.8-1.8,7.9-3.2,12-4.2c3.2-0.8,6.7-0.9,9.9-0.2c3.3,0.8,6.2,2.7,8.2,5.4c2.2,3.1,3.8,6.6,4.5,10.3
	c0.9,3.7,1.4,7.4,1.6,11.2c0.1,4.6,0.3,9.4,0.2,14c-0.1,5-0.6,9.8-1,14.7c-0.2,3.1-0.5,6.1-0.9,9.3c-0.4,3.6-0.9,7-1.4,10.4
	c-0.4,3.1-0.9,6.1-1.3,9.2c-0.4,2.6-0.8,5.3-1.2,7.9c-0.8,4.1-1.4,8.2-2.2,12.3c-0.6,3.8-1.3,7.5-2,11.3c-1.6,8-3.1,15.8-4.8,23.7
	c-1.6,7.4-3.2,14.7-5,22.1c-1.5,6.5-3.1,13-4.7,19.5c-0.1,0.3-0.1,0.8-0.1,1.1c1.7,1.6,3.6,3.1,5.2,4.7c4.8,5,9.3,10.1,13.3,15.7
	c9.2,12.2,17.3,24.9,25.7,37.5c7.5,11.2,15.1,22.3,23.1,33.1c4.2,5.6,8.6,11,13.2,16.3c4.1,4.7,8.4,9.3,12.9,13.6
	c9.9,9.5,20.9,17.5,32.8,24.3c12.5,7,25.9,12.1,39.8,15.3c4.6,1.2,9.3,1.9,14,2.5c4.1,0.4,8.2,0.8,12.3,1.2
	c6.1,0.4,12.4,0.5,18.6,0.2c4.3-0.1,8.7-0.5,13-1c5.3-0.5,10.6-1.1,15.7-2c7-1.2,13.9-2.7,20.8-4.2c12.4-2.9,24.5-6.7,36.5-11.1
	c9.6-3.4,18.9-7.3,28.2-11.4c9.8-4.3,19.4-8.9,28.9-13.8c15.4-7.9,30.4-16.4,45-25.4c11.1-6.8,22-13.9,32.7-21.2
	c15.7-10.8,31.2-22,46.4-33.6c8.2-6.4,16.4-12.7,24.4-19.3c7.5-6.1,14.9-12.5,22.4-18.7c1.5-1.2,2.6-2.9,3-4.8
	c4.4-16.3,9.8-32.2,16.3-47.8c8.5-20.7,19.2-40.4,32-58.8c6.1-9,13-17.5,20.6-25.5c5.7-5.9,11.5-11.7,17.3-17.5
	c3.7-3.7,7.6-7,12-9.9c2.8-1.9,6-3.3,9.4-4c3.6-0.6,6.8,0.1,9.3,3c1.4,1.7,2.3,3.9,2.5,6c0.6,4.4-0.2,8.6-1.4,12.8
	c-2.5,8.1-5.8,15.9-10,23.3c-7.9,14.4-17.4,27.8-27.7,40.7c-5.6,7-11.3,13.8-17.3,20.3c-5.1,5.5-10.1,11.1-15.4,16.5
	c-8.3,8.5-16.6,16.8-25,25.2c-2,2-4.1,4-6.1,5.9c-0.6,0.6-1.2,1.5-1.4,2.4c-2.4,9.7-4.7,19.4-6.6,29.1c-1.4,7.4-2.8,14.9-4.1,22.3
	c-0.9,4.8-1.4,9.7-2,14.6s-1.3,9.8-1.8,14.6c-0.3,3.6-0.6,7-0.9,10.6c-0.3,5.6-0.8,11.2-1,16.8c-0.1,2.3-0.1,4.5-0.1,6.8
	c0,3.9-0.1,7.8,0.1,11.6c0.2,5.1,0.3,10.2,0.9,15.3c0.5,6.1,1.3,12.3,2.3,18.4c2.9,16.9,7.5,33.3,15.8,48.4
	c9.2,16.9,22.3,31.2,38.4,41.7c8,5.2,16.5,9.4,25.4,12.7c7.6,2.9,15.5,5.1,23.5,6.5c5.3,1,10.7,1.2,16,0.8
	c6.2-0.3,12.2-2.6,17.1-6.4c0.8-0.5,0.8-0.5,2.2-0.6c-0.3,0.5-0.8,1.1-1.2,1.6c-5.1,5.1-10,10.2-15.2,15.2c-3,2.7-6.6,4.7-10.4,5.9
	c-5.8,1.8-12,2.5-18,1.8c-11-1-21.6-3.6-31.9-7.6c-9.5-3.6-18.4-8.2-26.7-13.8c-6.8-4.6-13-9.9-18.6-15.8
	c-9.4-9.9-16.9-21.3-22.4-33.7c-4.8-11.1-8.4-22.7-10.6-34.7c-0.9-4.8-1.6-9.7-2.3-14.5c-0.5-4-0.9-8.1-1.2-12.1
	c-0.8-9.8-1-19.6-0.6-29.4c0.1-5.2,0.4-10.2,0.8-15.3c0.4-5.6,0.9-11.2,1.5-16.8s1.3-11.2,2.2-16.7c1.2-8.2,2.4-16.5,4-24.7
	c1.7-9.2,3.9-18.2,5.8-27.3c0.6-3.1,1.5-6.1,2.2-9.2c0-0.2,0.1-0.4,0.1-1c-0.8,0.5-1.2,1-1.6,1.4c-8.4,7.3-16.7,14.6-25.3,21.7
	c-9.9,8.3-20,16.4-30.3,24.3c-8.6,6.7-17.3,13.1-26.1,19.5c-13.5,9.9-27.1,19.4-41.1,28.5c-13.3,8.7-27,17.1-40.9,24.9
	c-11.1,6.2-22.3,12.2-33.7,17.7c-16.7,8.1-33.8,15.3-51.2,21.4c-11.3,4-22.8,7.3-34.5,10c-7,1.6-14,3-21.2,4
	c-5.5,0.8-11,1.4-16.6,1.9c-8,0.6-16,0.9-24,0.5c-4.2-0.1-8.3-0.6-12.5-1c-6.7-0.6-13.2-1.8-19.7-3.4c-15.8-3.9-31-10.2-44.8-18.9
	c-7.8-4.8-15-10.3-21.7-16.5c-8-7.2-15.4-15-22.2-23.3c-8.7-10.6-16.7-21.6-24.3-32.8c-7-10.3-13.9-20.7-20.8-31
	c-4.7-7.1-9.7-14.1-15-20.8C155.6,246.6,153.8,244.5,151.8,242z M141.1,231.9c-0.4-0.4-0.6-0.6-1-0.9c-1-0.6-1.8-1.4-2.8-1.9
	c-8-5.6-18.2-6.9-27.2-3.4c-4.4,1.6-8.5,3.9-12.3,6.6c-2.5,1.6-4.6,3.6-6.5,5.8c-2.6,3.3-5.2,6.7-7.6,10.1
	c-8.1,11.6-15.3,23.8-21.3,36.6c-6.8,14.2-12.5,29-17.1,44c-4.8,15.7-8.1,31.9-9.7,48.2c-0.5,5.3-0.6,10.6-0.8,15.9
	c0,3.6,0.3,7.2,0.5,10.8c0.3,4.5,1,9,1.9,13.5c1.1,5.8,3.1,11.4,5.8,16.7c1.5,2.7,3.4,5.2,5.7,7.2c2.4,2.2,5.5,3.2,8.7,3
	c1.8-0.2,3.6-0.6,5.3-1.5c1-0.4,1.8-1.2,2.5-2c3.2-4.4,6.1-9.2,8.9-13.9c6.4-11.1,12-22.6,16.9-34.5c5.7-13.5,10.8-27,15.4-40.9
	c3.4-10.4,6.9-21,10.1-31.4c2.8-8.7,5.5-17.5,7.9-26.4c4.8-17.7,9.6-35.2,14.4-52.9C139.7,237.7,140.4,234.9,141.1,231.9z
	 M703.5,199.9c7.1-6.4,14.1-12.8,20.7-19.7c7.8-8.2,15.4-16.6,22.5-25.4c6-7.4,12-15,17.3-22.7c5.8-8.2,11.1-16.9,15.7-25.8
	c3.3-6.2,5.9-12.8,8-19.6c1.2-3.9,1.6-8,1.1-12c-0.8-4.6-4-9-10.4-8c-5.1,0.8-9.7,3.3-13,7.2c-4,4.5-7.6,9.3-11.1,14.1
	c-7.1,9.9-13.7,20.2-19.4,30.9c-6.9,12.9-13,26.3-18.2,39.9c-4,10.3-7.3,20.8-10.4,31.3C705.3,193.5,704.5,196.7,703.5,199.9z"/>
<path d="M632.8,240.1c-0.6,0.8-0.9,1.1-1.3,1.4c-4.8,4.8-9.8,9.7-14.6,14.6c-1,1.2-2.6,1.5-3.9,0.9c-1.8-0.8-3.6-1.9-5-3.3
	c-3-3-5.9-6.2-8.4-9.7c-10.6-13.9-20.2-28.3-29.3-43.3c-7.2-11.7-14-23.7-20.5-35.9c-5.3-9.9-10.4-19.9-15.7-29.8
	c-0.2-0.4-0.5-1-0.9-1.5c-2.3,2.6-4.4,5.1-6.5,7.6c-5.9,7.5-12.1,15-17.8,22.6c-5.3,7.1-10.3,14.3-15.4,21.5
	c-8.7,12.7-17,25.8-24.9,39c-6.7,11.3-12.9,22.7-18.5,34.6c-5.1,10.4-9,21.4-11.7,32.6c-0.2,1-0.6,1.7-1.4,2.5
	c-4.8,4.8-9.7,9.7-14.5,14.4c-0.4,0.4-0.9,1.2-1.8,1.1c0-0.3,0-0.8,0.1-1.1c2.2-9.2,5.2-18.1,8.9-26.7c6-13.7,12.9-27,20.6-39.8
	c7.9-13.3,16.1-26.4,24.8-39.2c7-10.3,14.3-20.6,22-30.5c6.7-8.7,13.7-17.2,20.8-25.5c4.4-5.1,8.8-10,13.2-15.1
	c0.2-0.2,0.3-0.4,0.6-0.8l-3.1-6.2c-5.9-11.8-11.8-23.6-17.7-35.4c-7.1-14.5-13.6-29.3-19.5-44.4c-1.2-2.9-2.5-5.8-3.8-8.6
	c-0.5-1-1.1-2-1.7-2.9c0,0.2,0,0.2,0,0.1s0-0.1,0-0.2c0.6-0.8,1.4-1.5,2-2.2c4.8-4.8,9.7-9.7,14.5-14.5c0.1-0.1,0.2-0.1,0.4-0.1
	c0.9,0.6,1.5,1.5,1.8,2.5c1.4,3.1,2.9,6.1,4.2,9.4c4.5,11.3,9.2,22.6,14.4,33.6c3.9,8.2,7.9,16.3,11.8,24.3
	c4.2,8.5,8.6,17,12.8,25.5l0.6,1.3c0.4-0.4,0.9-0.8,1.3-1.2c6.5-6.5,12.8-12.9,19.4-19.3c6.1-5.9,12.4-11.8,18.6-17.5
	c12.6-11.4,25.5-22.3,39.2-32.3c7.8-5.9,15.9-11.3,24.4-16.1c3.6-2,7.5-3.7,11.5-4.6c2.2-0.5,4.4-0.6,6.6-0.2
	c0.9,0.2,1.8,0.3,2.4,1.1c-0.8,1.3-13.5,14.2-16.7,17c-0.9-0.2-1.6-0.4-2.5-0.8c-2.6-0.6-5.2-0.1-7.6,0.6c-4.4,1.4-8.6,3.3-12.6,5.8
	c-8.9,5.4-17.5,11.4-25.8,17.9c-9.4,7.2-18.4,14.6-27.1,22.5c-5.6,5.1-11.3,10.1-16.7,15.4c-4.3,4.1-8.3,8.5-12.5,12.8
	c-0.2,0.3-0.5,0.6-0.8,1c0.5,1,1.1,2,1.6,3c3.9,7.5,7.8,15.1,11.7,22.5c6.8,12.7,13.7,25.3,21,37.7c8.4,14.2,17.5,28.1,27.1,41.6
	c3.7,5.3,7.6,10.2,12,15c1.3,1.4,2.7,2.7,4.2,3.8C629,239.6,630.8,240.2,632.8,240.1z"/>
<path d="M373.4,247.2l2.8-2.2c-0.1,0.6,0,1-0.1,1.2c-0.3,0.6-0.8,1.2-1.2,1.6c-5.1,5.1-10.1,10.1-15.2,15.2
	c-1.9,1.9-3.8,2.3-6.5,0.4c-2.2-1.7-4.2-3.8-5.8-6c-4.1-5.4-7.8-11.1-11.1-16.9c-4.3-7.4-8.4-14.9-12-22.6
	c-4.8-10.2-9.5-20.6-14.2-30.8c-1.1-2.4-2.2-4.8-3.2-7.2c-0.2-0.4-0.4-0.8-0.6-1.2c-2.2,4.4-4.2,8.7-6.2,12.9
	c-5,10.6-9.3,21.3-13.2,32.2c-2.8,7.8-5.4,15.5-7.9,23.3c-2.8,8.7-5.1,17.5-7,26.5c-0.5,2.6-0.9,5.3-1.1,7.9
	c-0.2,1.6,0.1,3.1,0.9,4.6c0.2,0.3,0.3,0.6,0.4,0.9l-16.9,16.9c-0.8-0.4-1.3-1.2-1.3-2c-0.3-1.5-0.5-3-0.4-4.5
	c1-8.9,3.3-17.5,5.8-26.2c4.7-16.8,10.6-33.4,17.2-49.5c4.8-11.8,10.3-23.5,16.5-34.7c2.8-5.3,5.7-10.4,8.6-15.6l0.8-1.5
	c-0.8-1.7-1.5-3.4-2.3-5.2c-6.7-14.7-13.6-29.3-21.1-43.6c-9.2-17.7-19.1-35.1-29.7-52c-3.3-5.5-7-10.8-10.9-15.9
	c-1.5-2-3.2-3.9-5.2-5.5c-0.6-0.4-1.4-0.8-2.2-1.3c0.1-0.3,0.2-0.5,0.4-0.8c5.3-5.4,10.7-10.7,15.9-15.9c0.1-0.1,0.3-0.2,0.5-0.3
	c1.3,0,2.2,0.9,3,1.7c2.5,2.3,4.6,4.8,6.6,7.5c5.8,8,11,16.4,16,24.9c7.5,12.6,14.7,25.3,21.5,38.3c6.6,12.6,12.9,25.4,18.8,38.4
	c1,2,1.8,4,2.9,6.1c0.4-0.5,0.6-0.9,1-1.3c6.8-10.3,13.8-20.5,21.3-30.1c6.6-8.5,13.2-17,20.1-25.4c6.5-7.9,13.1-15.5,19.9-23.1
	c7.5-8.6,15.8-16.7,24-24.8c3.1-3.2,6.5-6.2,9.9-9c1.5-1.2,3.1-2,5-2.6c1.4-0.4,3,0.1,3.9,1.3L405,48.1c-1.6-1.5-3.4-1.1-5.4,0
	c-1.9,1.3-3.8,2.8-5.2,4.6c-3.9,4.4-7.9,8.9-11.7,13.5c-5.2,6.1-10.3,12.3-15.4,18.5c-5.8,7.3-11.5,14.7-17,22.3
	c-8.3,11.2-16,22.8-23.4,34.8c-2,3.3-4.1,6.8-6.1,10.2c-0.2,0.4-0.5,0.9-0.8,1.4c1,2.2,1.9,4.3,2.9,6.6c4.3,9.5,8.5,18.8,12.8,28.3
	c2.9,6.4,5.9,12.7,9.2,18.9c5.2,10.4,11.1,20.6,17.8,30.1c1.9,3.1,4.4,5.8,7.2,8.3C370.7,246.9,372,247.3,373.4,247.2z"/>
<path d="M459.3,481.3l-16.8,16.8c-1.1-0.2-1.8-1.1-1.9-2.2c-0.5-2-0.9-4.2-1.1-6.4c-0.4-4.6-0.5-9.2-0.9-13.8
	c-0.5-8.1-0.3-16.1-0.2-24.2c0.1-5.2,0.4-10.3,0.8-15.5s0.9-10.6,1.4-15.8c0.4-3.9,0.8-7.8,1.3-11.6c0.8-5.5,1.7-11,2.7-16.5
	c0.2-1.2,0.8-2.3,1.6-3.1c5-4.8,9.8-9.7,14.6-14.6c0.4-0.4,0.9-1.2,1.7-1c-0.4,1.8-0.9,3.6-1.2,5.4c-0.6,3.8-1.2,7.5-1.7,11.4
	c-0.5,3.7-1,7.4-1.4,11.1c-0.3,3.3-0.6,6.7-0.9,10c-0.3,4.6-0.6,9.3-1,14c-0.1,1.4-0.1,2.9-0.1,4.3c0,1.4-0.1,2.9-0.1,4.5
	c0.4-0.4,0.9-0.9,1.3-1.2c4.8-4.8,9.7-9.7,14.5-14.4c3.8-3.9,8.1-7.1,12.8-9.8c3.8-2,7.6-3.3,12-3c1.7,0.1,3.3,0.8,4.7,1.7
	c1.7,1.2,2,2.3,1.5,4.4c-4.6,5.1-15.6,15.8-17.1,16.8c-0.1-0.3-0.1-0.5-0.1-0.9c0.3-1.1-0.1-2.4-1.2-2.9c-1.2-1-2.7-1.5-4.2-1.6
	c-2.7-0.3-5.3,0.1-7.8,1.1c-1.5,0.6-3,1.4-4.4,2.2c-0.8,0.4-1.4,1.1-1.8,1.8c-1.9,3.2-2.8,7.1-2.3,10.9s2.9,7,6.4,8.7
	c3.3,1.7,6.9,2.9,10.6,3.3c3.4,0.5,7.1,0.4,10.6-0.5c1.3-0.3,2.6-0.9,4-1.4c-0.1-1.1-0.2-2-0.3-3.1c-0.9-8.7,0.8-17.5,4.6-25.5
	c1.1-2.2,2.5-4.1,4.2-5.8c4.8-4.7,9.6-9.6,14.3-14.3c1.3-1.4,2.9-2.5,4.6-3.3c1.9-0.9,4.2-1,6.2-0.1c2.5,1.1,4.7,2.8,6.2,5.1
	c3,4.1,5.2,8.7,6.5,13.6c0.1,0.3,0.2,0.8,0.3,1.1c0.1,0.3,0.2,0.8,0.2,1.1l1.3-0.2c0.3,0.8,0.5,1.4,0.8,2c0.6,1.9,1.5,3.9,2.4,5.7
	c1.9,3.6,5.1,6.2,8.9,7.6c0.2,0.1,0.4,0.1,0.8,0.2c0.2,0,0.3,0,0.5,0c0-2.6-4.2-30.5-5-32.6c-3,1.1-6.1,2.5-9.5,2.3
	c-0.5,0-1.1-0.1-1.6-0.3c-0.3-0.1-0.6-0.3-0.9-0.5c-0.1-0.9,0.5-1.2,1-1.6c2.5-2.5,5.1-5,7.5-7.5c0.5-0.5,1.1-1.1,1.5-1.6
	c-0.4-3.1-2-5.8-2.2-8.6l17.1-17.1c1.4,5.5,3.3,11.1,4.3,16.8c1-0.1,1.9-0.6,2.5-1.4c3.3-3.3,6.7-6.7,10-10c1.9-1.9,3.9-4,5.8-5.9
	c0.9,0.2,1.4,1,1.3,1.8c0,1.1-0.3,2.2-1.1,3c-1.2,1.6-2.5,3.1-3.9,4.6c-4,4.1-8,8-12,12c-0.5,0.5-1.1,1.1-1.6,1.5
	c0.6,6.4,6.8,48,8.7,51.5l2.8-2.3c0,0.4,0,0.9-0.1,1.3c-0.6,1.3-1.4,2.6-2.4,3.7c-4.6,4.6-9.3,9.3-14,13.9c-0.8,0.8-1.5,1.3-2.3,1.9
	c-1-0.3-1.6-1.2-1.7-2.2c-0.6-2.9-1.3-5.8-1.9-8.7c-0.6-3.1-1.1-6.2-1.6-9.3c-0.1-0.3-0.2-0.6-0.4-1l-3.1,3.1
	c-2.7,2.7-5.5,5.5-8.2,8.2c-0.3,0.3-0.8,0.8-1.1,1.1c-1.6,1.7-4.1,2.3-6.2,1.4c-2.2-0.8-4.2-2-5.9-3.7c-1-0.9-1.9-1.7-3-2.7
	l-4.5,4.3c-0.1-0.3-0.2-0.5-0.3-0.9c0-0.3,0.1-0.8,0.2-1.1c-0.9,0.8-1.3,1.2-1.8,1.7c-3.1,3.1-6.2,6.2-9.5,9.4
	c-1.6,1.6-3.4,2.9-5.6,3.8c-2.7,1.2-5.8,0.5-7.9-1.6c-2.2-2.2-3.7-4.7-4.4-7.5c-0.1-0.4-0.3-1-0.5-1.6l-7,7.1
	c-2.4,2.4-4.7,4.7-7.1,7.1c-0.6,0.6-1.4,1.2-2.3,1.6c-4.4,2.2-9.4,2.8-14.2,2c-2.7-0.4-5.4-1.1-8.2-1.6c-0.1,0.4-0.1,0.9,0,1.3
	c0.3,3,0.8,6.1,1.1,9.2C457.6,479.1,458.3,480.4,459.3,481.3z M513,415.3c-0.3,2.3-0.5,4.3-0.9,6.4c-0.6,4.5-0.2,9.2,1,13.5
	c0.8,3.1,2.4,5.9,4.7,8.1c1,0.9,2.2,1.5,3.4,1.5c0.9-2,1.7-4.1,2.7-6c0.8-1.5,0.9-3.1,0.3-4.7c-1.2-5-3.2-9.6-6-13.8
	C516.9,418.2,515.1,416.4,513,415.3L513,415.3z"/>
<path d="M284.1,457.8c0.4-0.2,0.8-0.5,1.2-0.9c5.2-5.2,10.3-10.3,15.5-15.5c1.9-1.9,4-3.7,6-5.4c0.6-0.5,1.4-1.1,2.3-1.4
	c0.9-0.6,2-0.4,2.7,0.5c0.2,0.3,0.3,0.6,0.3,1c0.1,0.8,0.2,1.5,0.2,2.3c0,3.2-0.5,6.6-1.4,9.7c-1.7,6.5-3.4,12.9-5.2,19.3
	c-0.3,1.1-0.4,2-0.5,3.1h-0.1c0,0.1,0,0,0-0.1c0.3-0.3,0.6-0.6,0.9-1c4.4-6.2,8.8-12.3,13.7-18.1c1.7-2,3.4-4,5.4-5.9
	c4.6-4.7,9.4-9.4,14.1-14.1c1-1,2-1.8,3.1-2.8c0.3-0.3,0.6-0.5,1.1-0.8c2.2-1.3,3.3-0.8,4,1.7c0.4,2.2,0.5,4.3,0.2,6.5
	c-0.3,3.2-0.6,6.5-1.1,9.8c-0.4,3.3-0.8,6.4-1,9.6c-0.3,3.6-0.3,7.1,0.2,10.6c0.4,2.2,1.2,3.8,3.7,3.9c0.2,0,0.4,0.2,0.6,0.4
	c-0.8,1.3-13.5,14.1-16.7,16.9c-2.6,0.1-3.9-0.6-4.6-3c-0.4-1.3-0.6-2.7-0.8-4.1c-0.2-4.5,0-9,0.6-13.6c0.5-4.1,0.9-8.3,1.3-12.4
	c0.2-1.8,0.3-3.7,0.3-5.5c-0.1-1.2-0.2-2.3-0.5-3.4c-0.5,0.6-0.9,0.9-1.1,1.2c-4.3,6.2-8.7,12.4-13.1,18.6c-2.6,3.7-5.3,7.4-8,11.1
	c-0.5,0.8-1.1,1.4-1.7,1.9c-4.7,4.8-9.6,9.6-14.3,14.3c-0.6,0.6-1.4,1.3-2.2,1.8c-0.5,0.3-1.2,0.6-1.8,1c-1-0.3-1.5-1.5-1.2-2.5l0,0
	c0.2-1.4,0.5-2.8,0.9-4.2c1.5-5.4,3-10.8,4.4-16.3c1.2-4.5,2.3-9.2,3.2-13.8c0.2-1.7,0.2-3.4,0.1-5.1c0.1-0.6-0.3-1.2-1-1.4
	c-1,0.1-1.4,1-1.9,1.6c-1.7,2.2-3.4,4.2-5,6.5c-3.1,4.4-6.2,8.7-9.2,13.2c-1.6,2.6-2.9,5.5-4.3,8.2c-0.4,0.9-1.1,1.7-1.7,2.5
	c-4.8,4.8-9.7,9.8-14.6,14.6c-0.4,0.4-1,0.9-1.5,1.4c-0.6-0.8-0.3-1.4,0-1.9c0.9-1.6,1.6-3.3,2.5-4.8c2.7-5,5.1-10.1,7.1-15.5
	c3.3-8.1,6.2-16.4,8.5-24.9c1.1-3.9,1.7-7.8,1.9-11.7c0-1.3-0.1-2.7-0.5-3.9c-0.6-2.3-1.9-3-4.1-2.6c-2.6,0.5-5,1.7-6.8,3.6
	c-0.6,0.8-1.2,1.5-1.6,2.4c-0.3,0.6-0.8,1.2-1.2,1.7c-4.8,4.8-9.7,9.8-14.6,14.6c-0.4,0.4-0.8,1.1-1.5,1c-0.5-0.5-0.1-1.1,0.2-1.6
	c0.8-1.3,1.5-2.5,2.4-3.7c2.4-2.9,4.7-5.8,7.3-8.5c5.4-5.6,11-11.1,16.5-16.5c3.1-3.1,6.7-5.9,10.4-8.1c1.4-0.8,2.8-1.4,4.3-1.9
	c4.1-1.3,6,0.9,6.4,4.2c0.2,2.5,0.2,5-0.1,7.3c-1,7.5-3.6,14.6-6,21.9c-0.6,2-1.5,4-2.2,6C284.3,457,284.2,457.5,284.1,457.8
	l-0.1,0.3L284.1,457.8z"/>
<path d="M269.5,447.1c-0.1,0.6-0.4,1.3-1,1.6c-1.3,1.4-2.7,2.7-4,4.1c-3.6,3.7-7.2,7.2-10.9,10.9c-4.8,5-10.8,8.7-17.2,11.2
	c-4.2,1.7-8.6,2.4-13.1,2.2c-1.5-0.1-3-0.4-4.4-0.9c-2.8-1-4.4-2.6-6-6.1c-0.4,0.3-0.8,0.6-1.1,1c-2.5,2.6-5,5.3-7.3,7.9
	c-0.4,0.5-0.9,1.1-1.4,1.5c-5,5-9.8,9.9-14.7,14.7c-2,1.9-4.2,3.7-6.5,5.3c-1.5,1.1-3.3,1.8-5.2,2.2c-2.5,0.5-5.1-0.5-6.5-2.6
	c-1.3-1.7-2-3.8-2.3-5.9c-0.6-5.1-0.4-10.2,0.5-15.2c0.9-5.3,2.4-10.4,4.3-15.4c3.4-9.2,8.8-17.4,15.6-24.4c4.6-4.6,9.3-9.3,14-14
	c1.9-1.9,4.1-3.8,6.5-5.3c1.7-1.2,3.7-1.9,5.8-2.3c4-0.5,7.2,1.1,9.7,4c3.3,4,5.4,8.9,5.9,14.1c0.5,3.7-0.1,7.3-0.6,10.9
	c-0.6,3.4,0.3,7,2.5,9.8c1.1,1.2,2.4,2.2,3.9,2.6c2.8,1,5.7,1.2,8.6,0.6c8.3-1.2,16-5,22.1-10.8c0.8-0.8,1.6-1.3,2.5-1.9
	L269.5,447.1z M195.9,435.6c-1.5,3.1-3.2,6.2-4.7,9.5c-3.1,7.2-5.2,15-5.9,22.8c-0.3,3.2-0.3,6.6,0.2,9.8c0.2,2,1.1,3.9,2.3,5.5
	c1.7,2.4,5.2,2.9,7.5,1.2c0.5-0.4,1-0.9,1.3-1.4c3.7-5.7,7.3-11.3,11-17c1.6-2.5,2.9-5.2,5.1-7.3c0.3-0.5,0.5-1.1,0.5-1.7
	c0.1-2.6-0.1-5.1-0.8-7.5c-0.9-4.5-3.1-8.7-6.5-12C203,434.9,199.8,434.3,195.9,435.6L195.9,435.6z"/>
<path d="M376.3,421.1c0,0.5,0,1.1-0.1,1.6c-1.1,3.6-1.8,7.2-2.2,10.9c-0.5,4.5-1.2,9-1.4,13.6c-0.2,5.3-0.2,10.6,0,15.7
	c0.2,2.6,0.8,5.3,1.4,7.8c0.4,1.7,1.2,3.3,2.4,4.7c0.9,1.3,2.4,1.9,4,1.8c0.9-1.6,1.8-3.3,2.8-5c3.6-6.6,6.6-13.3,9.5-20.2
	c2-4.8,4.2-9.6,6.4-14.3c0.4-1,1.1-1.8,1.8-2.6c4.8-4.8,9.7-9.8,14.6-14.6c0.4-0.4,1-0.9,1.5-1.3c1,0.5,0.8,1.2,0.8,1.7
	c-0.1,1.4-0.2,2.9-0.4,4.3c-0.3,3.1-0.6,6.1-1,9.3c-0.2,1.7-0.3,3.6-0.4,5.3c-0.1,3.4-0.4,6.8-0.3,10.2c-0.1,4.6,0.6,9.2,2.2,13.6
	c1.1,3,2.8,5.7,5.1,7.9c1.8,1.8,4.4,2.7,6.9,2.4c1.7-0.3,3.4-1.1,4.8-2.2c0.5-0.4,1.1-1.1,2.2-0.9c-0.3,0.9-0.8,1.6-1.5,2.2
	c-4.7,4.7-9.5,9.5-14.2,14.2c-0.8,0.8-1.6,1.4-2.5,2c-1.5,1.1-3.2,1.8-5.1,2c-2.8,0.3-5.5-0.5-7.5-2.5c-2.6-2.4-4.5-5.3-5.6-8.6
	c-1.2-3.2-1.8-6.6-1.9-10c0-1.3-0.2-2.5-0.2-3.8c0-1.8,0-3.7,0-5.5c-0.9,1.4-1.8,2.8-2.7,4.2c-2.5,4.2-5.6,8-9,11.4
	c-4.3,4.3-8.6,8.6-12.9,12.8c-1.6,1.5-3.2,2.8-5,4.1c-1.2,0.9-2.6,1.3-4.1,1.4c-2.2,0.2-4.2-0.8-5.4-2.6c-1.3-1.8-2.3-3.9-2.7-6
	c-0.8-2.8-1.2-5.7-1.2-8.6c0-4.3-0.1-8.6,0.1-12.9c0.2-4.6,0.8-9.2,1.4-13.8c0.4-3.2,1.1-6.5,1.6-9.7c0.3-1.8,1.2-3.4,2.6-4.7
	c4.6-4.5,9.3-9.2,13.9-13.8C375,422.3,375.5,421.8,376.3,421.1z"/>
<path d="M586.9,388.2c5.8-5.8,11.3-11.3,16.9-17c0.2,0.3,0.4,0.6,0.5,1c1.1,4.1,1.8,8.2,2.4,12.4c0.5,4.8,1,9.7,1.5,14.4
	c0.4,4.7,1.3,9.5,2.6,14.1c0.1,0.4,0.3,1,0.5,1.4c0,0.1,0.2,0.1,0.4,0.2l1.3-5.7c1.4-6.2,2.9-12.4,4.3-18.6c0.3-1.4,1.1-2.7,2.2-3.7
	c4.7-4.7,9.5-9.5,14.2-14.2c0.5-0.5,1.1-1,1.6-1.4c0.9,0.4,1.5,1.2,1.7,2.2c1,2.7,1.9,5.3,3,8c2.3,6,5.9,11.5,10.6,16
	c2.4,2.4,5.2,4.2,8.4,5.4c2.9,1.1,6.2,0.6,8.7-1.3c0.4-0.3,1-0.9,1.8-0.6c-0.1,0.3-0.2,0.6-0.4,1c-0.3,0.4-0.6,0.8-1.1,1.1
	c-4.7,4.7-9.6,9.6-14.3,14.3c-1.1,1-2.3,1.8-3.6,2.6c-2.4,1.2-5.1,1.4-7.5,0.5c-3.1-1.1-6-2.7-8.4-5c-2.4-2.2-4.5-4.6-6.4-7.3
	c-0.2-0.3-0.4-0.5-0.9-1.1c-0.3,0.8-0.4,1.3-0.6,1.9c-0.8,2-1.5,4.1-2.4,6c-1.2,2.7-2.9,5.1-5,7.1c-4.5,4.4-8.9,8.9-13.5,13.3
	c-0.6,0.6-1.3,1.2-1.9,1.7c-2.7,2.2-5.3,1.4-7.2-1.1c-1.4-1.8-2.5-4-3-6.2c-1.2-4.1-1.9-8.2-2.4-12.4c-0.5-4.8-1-9.8-1.5-14.6
	c-0.4-4.6-1.3-9.2-2.5-13.6C587,388.9,586.9,388.6,586.9,388.2z"/>
<path class="st0" d="M141.1,231.9c-0.8,3-1.4,5.8-2.2,8.7c-4.7,17.7-9.5,35.3-14.4,52.9c-2.5,8.8-5.2,17.7-7.9,26.4
	c-3.3,10.6-6.7,21-10.1,31.4c-4.6,13.8-9.7,27.5-15.4,40.9c-4.8,11.8-10.6,23.4-16.9,34.5c-2.8,4.7-5.7,9.4-8.9,13.9
	c-0.6,0.9-1.4,1.6-2.5,2c-1.6,0.8-3.4,1.3-5.3,1.5c-3.2,0.2-6.4-0.9-8.7-3c-2.4-2-4.3-4.5-5.7-7.2c-2.8-5.3-4.7-10.9-5.8-16.7
	c-1-4.4-1.7-8.9-1.9-13.5c-0.2-3.6-0.6-7.2-0.5-10.8c0-5.3,0.2-10.7,0.8-15.9c1.6-16.4,4.8-32.5,9.7-48.2
	c4.6-15.1,10.3-29.8,17.1-44c6-12.8,13.1-25,21.3-36.6c2.5-3.4,5.1-6.8,7.6-10.1c1.8-2.3,4-4.2,6.5-5.8c3.8-2.8,8-5,12.3-6.6
	c9-3.4,19.3-2.2,27.2,3.4c1,0.6,1.8,1.3,2.8,1.9C140.5,231.3,140.7,231.5,141.1,231.9z"/>
<path class="st0" d="M703.5,199.9c0.9-3.2,1.7-6.5,2.7-9.6c3.1-10.6,6.6-21.1,10.4-31.3c5.2-13.7,11.3-27,18.2-39.9
	c5.7-10.8,12.3-21.1,19.4-31c3.6-4.8,7.2-9.7,11.1-14.1c3.3-3.9,8-6.4,13.1-7.2c6.5-1.1,9.7,3.3,10.4,8c0.5,4,0.1,8.1-1.1,12
	c-1.9,6.8-4.6,13.3-8,19.6c-4.6,8.9-9.9,17.7-15.7,25.8c-5.5,7.9-11.3,15.4-17.3,22.7c-7.2,8.7-14.7,17.1-22.5,25.4
	C717.7,187.1,710.7,193.6,703.5,199.9z"/>
<path class="st0" d="M513,415.3c2.2,1.2,4.1,2.8,5.4,5c2.8,4.2,4.8,8.8,6,13.8c0.5,1.6,0.3,3.2-0.3,4.7c-1,1.9-1.8,4-2.7,6
	c-1.3-0.1-2.5-0.6-3.4-1.5c-2.4-2.2-4-5-4.7-8.1c-1.3-4.4-1.6-8.9-1-13.5C512.4,419.7,512.6,417.5,513,415.3z"/>
<path class="st0" d="M284.1,457.8l-0.1,0.3L284.1,457.8L284.1,457.8z"/>
<path class="st0" d="M305,470.3C305,470.4,304.9,470.5,305,470.3L305,470.3L305,470.3z"/>
<path class="st0" d="M195.9,435.6c3.9-1.3,7.1-0.9,10,1.7c3.3,3.2,5.6,7.4,6.5,12c0.6,2.5,0.9,5,0.8,7.5c0,0.6-0.2,1.2-0.5,1.7
	c-2.2,2.2-3.4,4.8-5.1,7.3c-3.7,5.7-7.3,11.4-11,17c-1.6,2.5-5,3.1-7.4,1.5c-0.5-0.3-1-0.8-1.4-1.3c-1.2-1.6-1.9-3.6-2.3-5.5
	c-0.4-3.2-0.5-6.6-0.2-9.8c0.8-7.9,2.7-15.5,5.9-22.8C192.6,441.9,194.3,438.7,195.9,435.6z"/>
</svg>
